<?xml version="1.0" encoding="UTF-8" standalone="no"?>
<!-- Created with Inkscape (http://www.inkscape.org/) -->

<svg
   width="192.12592mm"
   height="38.871681mm"
   viewBox="0 0 192.12592 38.871681"
   version="1.1"
   id="svg1"
   xml:space="preserve"
   inkscape:version="1.4.2 (ebf0e940d0, 2025-05-08)"
   sodipodi:docname="logo.svg"
   inkscape:export-filename="logo-emblem-transparent.png"
   inkscape:export-xdpi="300"
   inkscape:export-ydpi="300"
   xmlns:inkscape="http://www.inkscape.org/namespaces/inkscape"
   xmlns:sodipodi="http://sodipodi.sourceforge.net/DTD/sodipodi-0.dtd"
   xmlns:xlink="http://www.w3.org/1999/xlink"
   xmlns="http://www.w3.org/2000/svg"
   xmlns:svg="http://www.w3.org/2000/svg"><sodipodi:namedview
     id="namedview1"
     pagecolor="#ffffff"
     bordercolor="#000000"
     borderopacity="0.25"
     inkscape:showpageshadow="2"
     inkscape:pageopacity="0.0"
     inkscape:pagecheckerboard="0"
     inkscape:deskcolor="#d1d1d1"
     inkscape:document-units="mm"
     inkscape:zoom="1"
     inkscape:cx="373.5"
     inkscape:cy="137.5"
     inkscape:window-width="2560"
     inkscape:window-height="1378"
     inkscape:window-x="0"
     inkscape:window-y="0"
     inkscape:window-maximized="1"
     inkscape:current-layer="layer1"
     showguides="true"
     showgrid="false"><inkscape:grid
       id="grid4"
       units="mm"
       originx="0"
       originy="0"
       spacingx="1"
       spacingy="0.99999996"
       empcolor="#0099e5"
       empopacity="0.30196078"
       color="#0099e5"
       opacity="0.14901961"
       empspacing="5"
       enabled="true"
       visible="false" /><sodipodi:guide
       position="20,18.871681"
       orientation="1,0"
       id="guide4"
       inkscape:locked="false" /><sodipodi:guide
       position="2.7050782e-08,19.435846"
       orientation="0,-1"
       id="guide5"
       inkscape:locked="false" /></sodipodi:namedview><defs
     id="defs1"><linearGradient
       id="linearGradient12"
       inkscape:collect="always"><stop
         style="stop-color:#2775a0;stop-opacity:1;"
         offset="0.06116611"
         id="stop12" /><stop
         style="stop-color:#c4c3c8;stop-opacity:1;"
         offset="0.87398839"
         id="stop13" /></linearGradient><inkscape:path-effect
       effect="fillet_chamfer"
       id="path-effect12"
       is_visible="true"
       lpeversion="1"
       nodesatellites_param="F,0,1,1,0,1.9008866,0,1 @ F,0,1,1,0,1.9008866,0,1 @ F,0,1,1,0,1.9008866,0,1 @ F,0,1,1,0,1.9008866,0,1 @ F,0,1,1,0,1.9008866,0,1 @ F,0,1,1,0,1.9008866,0,1"
       radius="0"
       unit="px"
       method="auto"
       mode="F"
       chamfer_steps="1"
       flexible="false"
       use_knot_distance="true"
       apply_no_radius="true"
       apply_with_radius="true"
       only_selected="false"
       hide_knots="false" /><inkscape:path-effect
       effect="fillet_chamfer"
       id="path-effect10"
       is_visible="true"
       lpeversion="1"
       nodesatellites_param="F,0,1,1,0,1.9008866,0,1 @ F,0,1,1,0,1.9008866,0,1 @ F,0,1,1,0,1.9008866,0,1 @ F,0,1,1,0,1.9008866,0,1 @ F,0,1,1,0,1.9008866,0,1 @ F,0,1,1,0,1.9008866,0,1"
       radius="0"
       unit="px"
       method="auto"
       mode="F"
       chamfer_steps="1"
       flexible="false"
       use_knot_distance="true"
       apply_no_radius="true"
       apply_with_radius="true"
       only_selected="false"
       hide_knots="false" /><inkscape:path-effect
       effect="fillet_chamfer"
       id="path-effect8"
       is_visible="true"
       lpeversion="1"
       nodesatellites_param="F,0,0,1,0,1.3404565,0,1 @ F,0,0,1,0,3.4069695,0,1 @ F,0,0,1,0,3.4069695,0,1 @ F,0,1,1,0,1.3404565,0,1 @ F,0,0,1,0,3.4069695,0,1 @ F,0,0,1,0,3.4069695,0,1"
       radius="0"
       unit="px"
       method="auto"
       mode="F"
       chamfer_steps="1"
       flexible="false"
       use_knot_distance="true"
       apply_no_radius="true"
       apply_with_radius="true"
       only_selected="false"
       hide_knots="false" /><inkscape:path-effect
       effect="fillet_chamfer"
       id="path-effect7"
       is_visible="true"
       lpeversion="1"
       nodesatellites_param="F,0,0,1,0,0,0,1 @ F,0,0,1,0,0,0,1 @ F,0,0,1,0,0,0,1 @ F,0,0,1,0,0,0,1 @ F,0,0,1,0,0,0,1 @ F,0,0,1,0,0,0,1"
       radius="0"
       unit="px"
       method="auto"
       mode="F"
       chamfer_steps="1"
       flexible="false"
       use_knot_distance="true"
       apply_no_radius="true"
       apply_with_radius="true"
       only_selected="false"
       hide_knots="false" /><marker
       style="overflow:visible"
       id="marker2"
       refX="0"
       refY="0"
       orient="auto"
       inkscape:stockid="Dot"
       markerWidth="1"
       markerHeight="1"
       viewBox="0 0 1 1"
       inkscape:isstock="true"
       inkscape:collect="always"
       preserveAspectRatio="xMidYMid"><path
         transform="scale(0.5)"
         style="fill:context-stroke;fill-rule:evenodd;stroke:none"
         d="M 5,0 C 5,2.76 2.76,5 0,5 -2.76,5 -5,2.76 -5,0 c 0,-2.76 2.3,-5 5,-5 2.76,0 5,2.24 5,5 z"
         sodipodi:nodetypes="sssss"
         id="path2" /></marker><linearGradient
       inkscape:collect="always"
       xlink:href="#linearGradient12"
       id="linearGradient13"
       x1="30.312363"
       y1="195.2178"
       x2="48.022053"
       y2="216.32339"
       gradientUnits="userSpaceOnUse" /></defs><g
     inkscape:label="Logo"
     inkscape:groupmode="layer"
     id="layer1"
     inkscape:export-filename="logo-emblem-transparent.png"
     inkscape:export-xdpi="1200"
     inkscape:export-ydpi="1200"
     transform="translate(-8.1104202,-129.06415)"><rect
       style="display:inline;fill:#30323e;stroke-width:1.31082;paint-order:stroke fill markers"
       id="rect1"
       width="192.12592"
       height="38.871681"
       x="8.1104202"
       y="129.06415"
       ry="2.5412149"
       inkscape:label="bg-box" /><rect
       style="display:none;fill:none;stroke:#f9f9f9;stroke-width:0.984719;stroke-miterlimit:4;stroke-dasharray:none;stroke-opacity:1;paint-order:stroke fill markers"
       id="rect13"
       width="191.14119"
       height="37.886963"
       x="8.6027803"
       y="129.5565"
       ry="2.0634258"
       inkscape:label="bg-box" /><text
       xml:space="preserve"
       style="font-weight:300;font-stretch:condensed;font-size:17.6389px;line-height:1;font-family:'Roboto Condensed';-inkscape-font-specification:'Roboto Condensed,  Light Condensed';text-align:start;text-decoration-color:#000000;letter-spacing:0.0502708px;writing-mode:lr-tb;direction:ltr;text-anchor:start;display:inline;fill:#30323e;stroke-width:2;paint-order:stroke fill markers;stroke:none"
       x="51.524433"
       y="155.24687"
       id="text1"
       inkscape:label="1-Wire Interface Text"
       inkscape:export-filename="logo.png"
       inkscape:export-xdpi="1200"
       inkscape:export-ydpi="1200"><tspan
         sodipodi:role="line"
         id="tspan1"
         style="font-style:normal;font-variant:normal;font-weight:600;font-stretch:normal;font-size:17.6389px;font-family:Montserrat;-inkscape-font-specification:'Montserrat Semi-Bold';fill:#f9f9f9;stroke-width:2;stroke:none"
         x="51.524433"
         y="155.24687">1-Wire Interface</tspan></text><path
       id="path10"
       transform="matrix(0.68014538,0,0,0.6656446,1.4710729,11.529971)"
       inkscape:transform-center-y="-1.0110951"
       d="m 40.840627,190.76511 10.428833,5.61831 a 3.1832467,3.1832467 59.156319 0 1 1.673489,2.80245 v 13.16924 a 3.1832466,3.1832466 120.84368 0 1 -1.673489,2.80245 l -10.428834,5.61831 a 3.5284651,3.5284651 0 0 1 -3.346978,0 l -10.428834,-5.61831 a 3.1832466,3.1832466 59.156318 0 1 -1.673489,-2.80245 v -13.16924 a 3.1832465,3.1832465 120.84368 0 1 1.673489,-2.80245 l 10.428835,-5.61831 a 3.5284651,3.5284651 1.7366369e-6 0 1 3.346978,0 z"
       style="display:inline;opacity:1;fill:#30323e;fill-opacity:1;stroke:none;stroke-width:0.4;stroke-linecap:round;stroke-dasharray:none;paint-order:markers stroke fill"
       inkscape:path-effect="#path-effect12"
       inkscape:original-d="m 39.167138,189.86355 13.775811,7.42143 V 214.256 L 39.167137,221.67743 25.391325,214.256 v -16.97102 z"
       sodipodi:nodetypes="ccccccc"
       inkscape:label="ring-inner-bg"
       inkscape:export-filename="logo-emblem-transparent-600dpi.png"
       inkscape:export-xdpi="600"
       inkscape:export-ydpi="600" /><path
       id="path5"
       style="display:inline;opacity:1;fill:url(#linearGradient13);stroke:none;stroke-width:0.4;stroke-linecap:round;stroke-dasharray:none;paint-order:markers stroke fill"
       inkscape:label="ring-colored"
       inkscape:transform-center-y="-1.5107804"
       d="m 38.991524,190.20811 a 2.4881831,2.4881831 0 0 0 -1.004266,0.29095 l -9.596716,5.17021 a 5.7053501,5.7053501 0 0 0 -2.999069,5.02265 v 10.157 a 5.7053503,5.7053503 0 0 0 2.999069,5.02317 l 9.596716,5.16968 a 2.4881831,2.4881831 0 0 0 2.359898,0 l 9.596208,-5.16968 a 5.7053503,5.7053503 0 0 0 2.999578,-5.02317 v -10.157 a 5.7053505,5.7053505 0 0 0 -2.999578,-5.02265 l -9.596208,-5.17021 a 2.4881831,2.4881831 0 0 0 -1.355632,-0.29095 z m 0.0092,5.24346 a 2.3614392,2.3614392 0 0 1 1.286478,0.27641 l 6.979522,3.7601 a 2.1304004,2.1304004 0 0 1 1.120202,1.87564 v 8.8134 a 2.1304004,2.1304004 0 0 1 -1.120202,1.87564 l -6.979522,3.7601 a 2.3614392,2.3614392 0 0 1 -2.239895,0 l -6.979522,-3.7601 a 2.1304004,2.1304004 0 0 1 -1.120202,-1.87564 v -8.8134 a 2.1304003,2.1304003 0 0 1 1.120202,-1.87564 l 6.979522,-3.7601 a 2.3614392,2.3614392 0 0 1 0.953417,-0.27641 z"
       transform="matrix(1.016274,0,0,0.9946069,-11.694123,-56.160763)" /><path
       id="path13"
       style="display:none;opacity:1;fill:#f9f9f9;fill-opacity:1;stroke:none;stroke-width:0.4;stroke-linecap:round;stroke-dasharray:none;paint-order:markers stroke fill"
       inkscape:label="ring-white"
       inkscape:transform-center-y="-1.5107804"
       d="m 38.991524,190.20811 a 2.4881831,2.4881831 0 0 0 -1.004266,0.29095 l -9.596716,5.17021 a 5.7053501,5.7053501 0 0 0 -2.999069,5.02265 v 10.157 a 5.7053503,5.7053503 0 0 0 2.999069,5.02317 l 9.596716,5.16968 a 2.4881831,2.4881831 0 0 0 2.359898,0 l 9.596208,-5.16968 a 5.7053503,5.7053503 0 0 0 2.999578,-5.02317 v -10.157 a 5.7053505,5.7053505 0 0 0 -2.999578,-5.02265 l -9.596208,-5.17021 a 2.4881831,2.4881831 0 0 0 -1.355632,-0.29095 z m 0.0092,5.24346 a 2.3614392,2.3614392 0 0 1 1.286478,0.27641 l 6.979522,3.7601 a 2.1304004,2.1304004 0 0 1 1.120202,1.87564 v 8.8134 a 2.1304004,2.1304004 0 0 1 -1.120202,1.87564 l -6.979522,3.7601 a 2.3614392,2.3614392 0 0 1 -2.239895,0 l -6.979522,-3.7601 a 2.1304004,2.1304004 0 0 1 -1.120202,-1.87564 v -8.8134 a 2.1304003,2.1304003 0 0 1 1.120202,-1.87564 l 6.979522,-3.7601 a 2.3614392,2.3614392 0 0 1 0.953417,-0.27641 z"
       transform="matrix(1.016274,0,0,0.9946069,-11.694123,-56.160762)" /><g
       id="g5"
       inkscape:label="star"
       transform="translate(0.12254248,4.15875e-4)"
       style="display:inline;stroke:#f9f9f9"><path
         style="fill:#f9f9f9;stroke:#f9f9f9;stroke-width:0.400127;stroke-linecap:round;stroke-dasharray:none;marker-start:url(#marker2);marker-end:url(#marker2);paint-order:markers stroke fill"
         d="m 27.987878,141.50021 v 13.99872"
         id="path1"
         inkscape:label="star1" /><path
         style="fill:#f9f9f9;stroke:#f9f9f9;stroke-width:0.400127;stroke-linecap:round;stroke-dasharray:none;marker-start:url(#marker2);marker-end:url(#marker2);paint-order:markers stroke fill"
         d="m 34.049502,144.99989 -12.123248,6.99936"
         id="path3"
         inkscape:label="star2" /><path
         style="fill:#f9f9f9;stroke:#f9f9f9;stroke-width:0.400127;stroke-linecap:round;stroke-dasharray:none;marker-start:url(#marker2);marker-end:url(#marker2);paint-order:markers stroke fill"
         d="m 21.926254,144.99989 12.123248,6.99936"
         id="path4"
         inkscape:label="star3" /></g></g></svg>
