<?xml version="1.0" encoding="UTF-8" standalone="no"?>
<!-- Created with Inkscape (http://www.inkscape.org/) -->

<svg
   width="192.12592mm"
   height="38.871681mm"
   viewBox="0 0 192.12592 38.871681"
   version="1.1"
   id="svg1"
   xml:space="preserve"
   inkscape:version="1.4.3 (0d15f75042, 2025-12-25)"
   sodipodi:docname="logo-white-transparent-framed.inkscape.svg"
   inkscape:export-filename="logo-300dpi.png"
   inkscape:export-xdpi="600"
   inkscape:export-ydpi="600"
   xmlns:inkscape="http://www.inkscape.org/namespaces/inkscape"
   xmlns:sodipodi="http://sodipodi.sourceforge.net/DTD/sodipodi-0.dtd"
   xmlns="http://www.w3.org/2000/svg"
   xmlns:svg="http://www.w3.org/2000/svg"><sodipodi:namedview
     id="namedview1"
     pagecolor="#000000"
     bordercolor="#000000"
     borderopacity="0.25"
     inkscape:showpageshadow="2"
     inkscape:pageopacity="0.0"
     inkscape:pagecheckerboard="0"
     inkscape:deskcolor="#d1d1d1"
     inkscape:document-units="mm"
     inkscape:zoom="2"
     inkscape:cx="419"
     inkscape:cy="109.5"
     inkscape:window-width="2560"
     inkscape:window-height="1378"
     inkscape:window-x="0"
     inkscape:window-y="0"
     inkscape:window-maximized="1"
     inkscape:current-layer="layer1"
     showguides="true"
     showgrid="false"><inkscape:grid
       id="grid4"
       units="mm"
       originx="0"
       originy="0"
       spacingx="1"
       spacingy="0.99999996"
       empcolor="#0099e5"
       empopacity="0.30196078"
       color="#0099e5"
       opacity="0.14901961"
       empspacing="5"
       enabled="true"
       visible="false" /><sodipodi:guide
       position="20,18.871681"
       orientation="1,0"
       id="guide4"
       inkscape:locked="false" /><sodipodi:guide
       position="2.7050782e-08,19.435846"
       orientation="0,-1"
       id="guide5"
       inkscape:locked="false" /></sodipodi:namedview><defs
     id="defs1"><inkscape:path-effect
       effect="fillet_chamfer"
       id="path-effect12"
       is_visible="true"
       lpeversion="1"
       nodesatellites_param="F,0,1,1,0,1.9008866,0,1 @ F,0,1,1,0,1.9008866,0,1 @ F,0,1,1,0,1.9008866,0,1 @ F,0,1,1,0,1.9008866,0,1 @ F,0,1,1,0,1.9008866,0,1 @ F,0,1,1,0,1.9008866,0,1"
       radius="0"
       unit="px"
       method="auto"
       mode="F"
       chamfer_steps="1"
       flexible="false"
       use_knot_distance="true"
       apply_no_radius="true"
       apply_with_radius="true"
       only_selected="false"
       hide_knots="false" /><inkscape:path-effect
       effect="fillet_chamfer"
       id="path-effect10"
       is_visible="true"
       lpeversion="1"
       nodesatellites_param="F,0,1,1,0,1.9008866,0,1 @ F,0,1,1,0,1.9008866,0,1 @ F,0,1,1,0,1.9008866,0,1 @ F,0,1,1,0,1.9008866,0,1 @ F,0,1,1,0,1.9008866,0,1 @ F,0,1,1,0,1.9008866,0,1"
       radius="0"
       unit="px"
       method="auto"
       mode="F"
       chamfer_steps="1"
       flexible="false"
       use_knot_distance="true"
       apply_no_radius="true"
       apply_with_radius="true"
       only_selected="false"
       hide_knots="false" /><inkscape:path-effect
       effect="fillet_chamfer"
       id="path-effect8"
       is_visible="true"
       lpeversion="1"
       nodesatellites_param="F,0,0,1,0,1.3404565,0,1 @ F,0,0,1,0,3.4069695,0,1 @ F,0,0,1,0,3.4069695,0,1 @ F,0,1,1,0,1.3404565,0,1 @ F,0,0,1,0,3.4069695,0,1 @ F,0,0,1,0,3.4069695,0,1"
       radius="0"
       unit="px"
       method="auto"
       mode="F"
       chamfer_steps="1"
       flexible="false"
       use_knot_distance="true"
       apply_no_radius="true"
       apply_with_radius="true"
       only_selected="false"
       hide_knots="false" /><inkscape:path-effect
       effect="fillet_chamfer"
       id="path-effect7"
       is_visible="true"
       lpeversion="1"
       nodesatellites_param="F,0,0,1,0,0,0,1 @ F,0,0,1,0,0,0,1 @ F,0,0,1,0,0,0,1 @ F,0,0,1,0,0,0,1 @ F,0,0,1,0,0,0,1 @ F,0,0,1,0,0,0,1"
       radius="0"
       unit="px"
       method="auto"
       mode="F"
       chamfer_steps="1"
       flexible="false"
       use_knot_distance="true"
       apply_no_radius="true"
       apply_with_radius="true"
       only_selected="false"
       hide_knots="false" /></defs><g
     inkscape:label="Logo"
     inkscape:groupmode="layer"
     id="layer1"
     inkscape:export-filename="logo-emblem-transparent.png"
     inkscape:export-xdpi="1200"
     inkscape:export-ydpi="1200"
     transform="translate(-8.1104202,-129.06415)"><path
       style="baseline-shift:baseline;display:inline;overflow:visible;vector-effect:none;fill:#ffffff;paint-order:stroke fill markers;enable-background:accumulate;stop-color:#000000;stop-opacity:1;opacity:1"
       d="m 11.347656,129.06445 c -1.7792613,0 -3.2363279,1.45707 -3.2363279,3.23633 v 32.39844 c 0,1.77926 1.4570666,3.23633 3.2363279,3.23633 H 197 c 1.77926,0 3.23633,-1.45707 3.23633,-3.23633 v -32.39844 c 0,-1.77926 -1.45707,-3.23633 -3.23633,-3.23633 z m 0,1.59961 H 197 c 0.9205,0 1.63672,0.71622 1.63672,1.63672 v 32.39844 c 0,0.9205 -0.71622,1.63672 -1.63672,1.63672 H 11.347656 c -0.920505,0 -1.6367185,-0.71622 -1.6367185,-1.63672 v -32.39844 c 0,-0.9205 0.7162135,-1.63672 1.6367185,-1.63672 z"
       id="rect1" /><path
       style="font-weight:600;font-size:17.6389px;line-height:1;font-family:Montserrat;-inkscape-font-specification:'Montserrat Semi-Bold';letter-spacing:0.0502708px;fill:#f9f9f9;stroke-width:2;paint-order:stroke fill markers"
       d="m 54.276102,155.24687 v -10.42459 h -2.610558 v -1.92264 h 4.903615 v 12.34723 z m 4.989172,-3.98639 v -1.83445 h 4.850698 v 1.83445 z m 9.998622,3.98639 -4.092225,-12.34723 h 2.381251 l 3.069169,9.3839 3.192641,-9.3839 H 75.9314 l 3.122085,9.43681 3.157364,-9.43681 h 2.187223 l -4.092225,12.34723 h -2.434168 l -3.05153,-9.11931 -3.104446,9.11931 z m 16.930712,0 v -9.41917 h 2.204863 v 9.41917 z m 1.111251,-10.97139 q -0.617361,0 -1.023056,-0.38806 -0.388056,-0.38806 -0.388056,-0.93486 0,-0.54681 0.388056,-0.93486 0.405695,-0.38806 1.023056,-0.38806 0.617362,0 1.005417,0.37042 0.405695,0.35278 0.405695,0.89958 0,0.58209 -0.405695,0.98778 -0.388055,0.38806 -1.005417,0.38806 z m 4.036653,10.97139 v -9.41917 h 2.099029 v 1.37583 q 0.97014,-1.48166 3.351391,-1.48166 v 2.09902 q -0.141111,-0.0176 -0.264583,-0.0353 -0.123473,-0.0176 -0.246945,-0.0176 -1.252362,0 -1.993196,0.74083 -0.740834,0.7232 -0.740834,2.16959 v 4.56847 z m 11.709578,0.12347 q -1.56986,0 -2.75166,-0.61736 -1.164171,-0.635 -1.81681,-1.71097 -0.635001,-1.09361 -0.635001,-2.50472 0,-1.41112 0.617362,-2.48709 0.635,-1.09361 1.728609,-1.71097 1.11125,-0.61736 2.52237,-0.61736 1.37583,0 2.4518,0.59972 1.07598,0.59972 1.69334,1.71097 0.61736,1.09361 0.61736,2.55764 0,0.14111 -0.0176,0.3175 0,0.17639 -0.0176,0.33514 h -7.3907 q 0.19403,1.02306 1.00542,1.64042 0.81139,0.61736 2.04611,0.61736 1.56986,0 2.55764,-1.02306 l 1.18181,1.3582 q -1.30528,1.53458 -3.79237,1.53458 z m -3.01625,-5.59153 h 5.34459 q -0.14111,-1.02305 -0.86431,-1.65805 -0.72319,-0.635 -1.79916,-0.635 -1.07598,0 -1.79917,0.635 -0.7232,0.61736 -0.88195,1.65805 z m 14.74081,5.46806 v -12.34723 h 2.29306 v 12.34723 z m 5.46542,0 v -9.41917 h 2.09903 v 1.21708 q 0.54681,-0.65264 1.37583,-0.98778 0.84667,-0.33513 1.86973,-0.33513 1.12889,0 2.01083,0.44097 0.89959,0.44097 1.41111,1.35819 0.51153,0.91723 0.51153,2.32834 v 5.3975 h -2.20486 v -5.11528 q 0,-1.25236 -0.59972,-1.86972 -0.58209,-0.61736 -1.64042,-0.61736 -1.18181,0 -1.905,0.72319 -0.7232,0.70556 -0.7232,2.11667 v 4.7625 z m 15.67832,0.12347 q -1.55222,0 -2.39889,-0.79375 -0.84666,-0.81139 -0.84666,-2.38125 v -4.60375 h -1.55223 v -1.76389 h 1.55223 v -2.08139 h 2.20486 v 2.08139 h 2.52236 v 1.76389 h -2.52236 v 4.55084 q 0,0.68791 0.33514,1.05833 0.33514,0.35278 0.97014,0.35278 0.72319,0 1.23472,-0.38806 l 0.61736,1.56986 q -0.40569,0.3175 -0.97014,0.47625 -0.5468,0.15875 -1.14653,0.15875 z m 8.09362,0 q -1.56986,0 -2.75167,-0.61736 -1.16417,-0.635 -1.81681,-1.71097 -0.635,-1.09361 -0.635,-2.50472 0,-1.41112 0.61736,-2.48709 0.63501,-1.09361 1.72862,-1.71097 1.11125,-0.61736 2.52236,-0.61736 1.37583,0 2.45181,0.59972 1.07597,0.59972 1.69333,1.71097 0.61736,1.09361 0.61736,2.55764 0,0.14111 -0.0176,0.3175 0,0.17639 -0.0176,0.33514 h -7.3907 q 0.19402,1.02306 1.00541,1.64042 0.81139,0.61736 2.04612,0.61736 1.56986,0 2.55764,-1.02306 l 1.1818,1.3582 q -1.30528,1.53458 -3.79236,1.53458 z m -3.01625,-5.59153 h 5.34458 q -0.14111,-1.02305 -0.8643,-1.65805 -0.7232,-0.635 -1.79917,-0.635 -1.07597,0 -1.79917,0.635 -0.72319,0.61736 -0.88194,1.65805 z m 9.61054,5.46806 v -9.41917 h 2.09903 v 1.37583 q 0.97014,-1.48166 3.3514,-1.48166 v 2.09902 q -0.14112,-0.0176 -0.26459,-0.0353 -0.12347,-0.0176 -0.24694,-0.0176 -1.25237,0 -1.9932,0.74083 -0.74083,0.7232 -0.74083,2.16959 v 4.56847 z m 7.75848,0 v -7.58473 h -1.55223 v -1.76389 h 1.55223 v -0.59972 q 0,-1.48167 0.8643,-2.36361 0.86431,-0.89958 2.50473,-0.89958 0.56444,0 1.09361,0.12347 0.52917,0.12347 0.89958,0.38805 l -0.61736,1.65806 q -0.24694,-0.17639 -0.56444,-0.28222 -0.29987,-0.10584 -0.65264,-0.10584 -1.39348,0 -1.39348,1.51695 v 0.56444 h 2.59292 v 1.76389 h -2.52236 v 7.58473 z m 11.88596,0 v -1.12889 q -0.84667,1.25236 -2.96334,1.25236 -1.62278,0 -2.57528,-0.79375 -0.93486,-0.79375 -0.93486,-2.02847 0,-0.79375 0.37042,-1.42875 0.38805,-0.635 1.25236,-1.00542 0.8643,-0.37042 2.29305,-0.37042 h 2.43417 v -0.14111 q 0,-0.97014 -0.58208,-1.4993 -0.58208,-0.54681 -1.76389,-0.54681 -0.79375,0 -1.56986,0.24695 -0.75848,0.24694 -1.28764,0.68791 l -0.86431,-1.60514 q 0.75847,-0.58208 1.79917,-0.8643 1.05833,-0.29986 2.18722,-0.29986 2.04612,0 3.15737,0.98777 1.12889,0.97014 1.12889,3.01626 v 5.52097 z m -0.12348,-2.94569 v -1.09362 h -2.27542 q -1.12888,0 -1.51694,0.37042 -0.38806,0.37042 -0.38806,0.88195 0,0.59972 0.47625,0.9525 0.47625,0.35277 1.32292,0.35277 0.81139,0 1.44639,-0.37041 0.65264,-0.37042 0.93486,-1.09361 z m 9.41653,3.06916 q -1.48167,0 -2.64584,-0.61736 -1.14653,-0.635 -1.79917,-1.71097 -0.65264,-1.09361 -0.65264,-2.50472 0,-1.41112 0.65264,-2.48709 0.65264,-1.09361 1.79917,-1.71097 1.16417,-0.61736 2.64584,-0.61736 1.37583,0 2.41653,0.56444 1.05833,0.54681 1.60514,1.62278 l -1.69334,0.98778 q -0.42333,-0.67028 -1.04069,-0.98778 -0.59973,-0.3175 -1.30528,-0.3175 -1.21709,0 -2.04611,0.79375 -0.81139,0.79375 -0.81139,2.15195 0,1.37583 0.81139,2.16958 0.82902,0.77611 2.04611,0.77611 0.70555,0 1.30528,-0.3175 0.61736,-0.3175 1.04069,-0.98778 l 1.69334,0.98778 q -0.54681,1.05834 -1.60514,1.64042 -1.0407,0.56444 -2.41653,0.56444 z m 10.26319,0 q -1.56986,0 -2.75166,-0.61736 -1.16417,-0.635 -1.81681,-1.71097 -0.635,-1.09361 -0.635,-2.50472 0,-1.41112 0.61736,-2.48709 0.635,-1.09361 1.72861,-1.71097 1.11125,-0.61736 2.52237,-0.61736 1.37583,0 2.4518,0.59972 1.07598,0.59972 1.69334,1.71097 0.61736,1.09361 0.61736,2.55764 0,0.14111 -0.0176,0.3175 0,0.17639 -0.0176,0.33514 h -7.3907 q 0.19403,1.02306 1.00542,1.64042 0.81139,0.61736 2.04611,0.61736 1.56986,0 2.55764,-1.02306 l 1.18181,1.3582 q -1.30528,1.53458 -3.79237,1.53458 z m -3.01625,-5.59153 h 5.34459 q -0.14111,-1.02305 -0.86431,-1.65805 -0.72319,-0.635 -1.79916,-0.635 -1.07598,0 -1.79917,0.635 -0.7232,0.61736 -0.88195,1.65805 z"
       id="text1"
       inkscape:label="1-Wire Interface Text"
       aria-label="1-Wire Interface" /><path
       id="path5"
       style="display:inline;opacity:1;fill:#ffffff;stroke:none;stroke-width:0.4;stroke-linecap:round;stroke-dasharray:none;paint-order:markers stroke fill"
       inkscape:label="ring-colored"
       inkscape:transform-center-y="-1.5107804"
       d="m 38.991524,190.20811 a 2.4881831,2.4881831 0 0 0 -1.004266,0.29095 l -9.596716,5.17021 a 5.7053501,5.7053501 0 0 0 -2.999069,5.02265 v 10.157 a 5.7053503,5.7053503 0 0 0 2.999069,5.02317 l 9.596716,5.16968 a 2.4881831,2.4881831 0 0 0 2.359898,0 l 9.596208,-5.16968 a 5.7053503,5.7053503 0 0 0 2.999578,-5.02317 v -10.157 a 5.7053505,5.7053505 0 0 0 -2.999578,-5.02265 l -9.596208,-5.17021 a 2.4881831,2.4881831 0 0 0 -1.355632,-0.29095 z m 0.0092,5.24346 a 2.3614392,2.3614392 0 0 1 1.286478,0.27641 l 6.979522,3.7601 a 2.1304004,2.1304004 0 0 1 1.120202,1.87564 v 8.8134 a 2.1304004,2.1304004 0 0 1 -1.120202,1.87564 l -6.979522,3.7601 a 2.3614392,2.3614392 0 0 1 -2.239895,0 l -6.979522,-3.7601 a 2.1304004,2.1304004 0 0 1 -1.120202,-1.87564 v -8.8134 a 2.1304003,2.1304003 0 0 1 1.120202,-1.87564 l 6.979522,-3.7601 a 2.3614392,2.3614392 0 0 1 0.953417,-0.27641 z"
       transform="matrix(1.016274,0,0,0.9946069,-11.694123,-56.160763)" /><path
       id="path43"
       style="opacity:1;baseline-shift:baseline;display:inline;overflow:visible;vector-effect:none;fill:#f9f9f9;fill-rule:evenodd;enable-background:accumulate;stop-color:#000000;stop-opacity:1"
       inkscape:label="star"
       d="M 32.238102 11.685592 C 31.548102 11.685592 30.988049 12.245645 30.988049 12.935645 C 30.988049 13.447898 31.297044 13.888819 31.738391 14.081828 L 31.738391 18.568892 L 27.851806 16.325102 L 27.851806 16.324585 C 27.904935 15.846158 27.677614 15.359434 27.234273 15.103471 C 27.051596 14.998002 26.850114 14.944755 26.648779 14.939657 C 26.205842 14.928441 25.763554 15.149986 25.526367 15.560807 C 25.181367 16.158365 25.386662 16.923197 25.98422 17.268197 C 26.427797 17.524296 26.963764 17.477346 27.351578 17.191715 L 31.237646 19.435506 L 27.351062 21.679297 C 26.963282 21.393954 26.42763 21.34733 25.98422 21.603333 C 25.386662 21.948333 25.181367 22.713164 25.526367 23.310722 C 25.871367 23.90828 26.636715 24.113575 27.234273 23.768575 C 27.668139 23.518082 27.900051 23.027822 27.849739 22.547461 L 31.738391 20.30212 L 31.738391 24.790218 C 31.297044 24.983227 30.988049 25.423631 30.988049 25.935885 C 30.988049 26.625885 31.548102 27.185938 32.238102 27.185937 C 32.928102 27.185937 33.488155 26.625885 33.488155 25.935885 C 33.488155 25.434761 33.179685 24.988811 32.73833 24.792285 L 32.73833 20.301603 L 36.624914 22.545911 L 36.624914 22.546427 C 36.571557 23.025025 36.798942 23.512517 37.242448 23.768575 C 37.840006 24.113575 38.604837 23.90828 38.949837 23.310722 C 39.294837 22.713164 39.090059 21.948333 38.492501 21.603333 C 38.058728 21.352894 37.518555 21.396743 37.127726 21.68033 L 33.239074 19.435506 L 37.125142 17.191715 C 37.512957 17.47735 38.048921 17.524297 38.492501 17.268197 C 39.077068 16.930697 39.294837 16.158365 38.949837 15.560807 C 38.712649 15.149986 38.276947 14.924602 37.833626 14.936039 C 37.632116 14.941238 37.429185 14.995658 37.242448 15.103471 C 36.799109 15.359432 36.571789 15.846161 36.624914 16.324585 L 36.624914 16.325102 L 32.73833 18.569409 L 32.73833 14.081828 C 33.179685 13.888822 33.488155 13.447904 33.488155 12.935645 C 33.488155 12.260645 32.928102 11.685592 32.238102 11.685592 z "
       transform="translate(-4.1278689,129.06415)" /></g><g
     inkscape:groupmode="layer"
     id="layer2"
     inkscape:label="MetaData" /></svg>
