  0
SECTION
  2
HEADER
  9
$ACADVER
  1
AC1014
  9
$HANDSEED
  5
FFFF
  9
$INSUNITS
 70
     4
  9
$MEASUREMENT
 70
     1
  0
ENDSEC
  0
SECTION
  2
TABLES
  0
TABLE
  2
VPORT
  5
8
330
0
100
AcDbSymbolTable
 70
     4
  0
VPORT
  5
2E
330
8
100
AcDbSymbolTableRecord
100
AcDbViewportTableRecord
  2
*ACTIVE
 70
     0
 10
0.0
 20
0.0
 11
1.0
 21
1.0
 12
210.0
 22
148.5
 13
0.0
 23
0.0
 14
10.0
 24
10.0
 15
10.0
 25
10.0
 16
0.0
 26
0.0
 36
1.0
 17
0.0
 27
0.0
 37
0.0
 40
341.0
 41
1.24
 42
50.0
 43
0.0
 44
0.0
 50
0.0
 51
0.0
 71
     0
 72
   100
 73
     1
 74
     3
 75
     0
 76
     0
 77
     0
 78
     0
  0
ENDTAB
  0
TABLE
  2
LTYPE
  5
5
330
0
100
AcDbSymbolTable
 70
     1
  0
LTYPE
  5
14
330
5
100
AcDbSymbolTableRecord
100
AcDbLinetypeTableRecord
  2
BYBLOCK
 70
     0
  3

 72
    65
 73
     0
 40
0.0
  0
LTYPE
  5
15
330
5
100
AcDbSymbolTableRecord
100
AcDbLinetypeTableRecord
  2
BYLAYER
 70
     0
  3

 72
    65
 73
     0
 40
0.0
  0
LTYPE
  5
16
330
5
100
AcDbSymbolTableRecord
100
AcDbLinetypeTableRecord
  2
CONTINUOUS
 70
     0
  3
Solid line
 72
    65
 73
     0
 40
0.0
  0
ENDTAB
  0
TABLE
  2
LAYER
  5
2
100
AcDbSymbolTable
 70
3
  0
LAYER
  5
50
100
AcDbSymbolTableRecord
100
AcDbLayerTableRecord
  2
0
 70
0
  6
CONTINUOUS
  0
LAYER
  5
51
100
AcDbSymbolTableRecord
100
AcDbLayerTableRecord
  2
Logo
 70
0
  6
CONTINUOUS
  0
LAYER
  5
52
100
AcDbSymbolTableRecord
100
AcDbLayerTableRecord
  2
MetaData
 70
0
  6
CONTINUOUS
  0
ENDTAB
  0
TABLE
  2
STYLE
  5
3
330
0
100
AcDbSymbolTable
 70
     1
  0
STYLE
  5
11
330
3
100
AcDbSymbolTableRecord
100
AcDbTextStyleTableRecord
  2
STANDARD
 70
     0
 40
0.0
 41
1.0
 50
0.0
 71
     0
 42
2.5
  3
txt
  4

  0
ENDTAB
  0
TABLE
  2
VIEW
  5
6
330
0
100
AcDbSymbolTable
 70
     0
  0
ENDTAB
  0
TABLE
  2
UCS
  5
7
330
0
100
AcDbSymbolTable
 70
     0
  0
ENDTAB
  0
TABLE
  2
APPID
  5
9
330
0
100
AcDbSymbolTable
 70
     2
  0
APPID
  5
12
330
9
100
AcDbSymbolTableRecord
100
AcDbRegAppTableRecord
  2
ACAD
 70
     0
  0
ENDTAB
  0
TABLE
  2
DIMSTYLE
  5
A
330
0
100
AcDbSymbolTable
 70
     1
  0
DIMSTYLE
105
27
330
A
100
AcDbSymbolTableRecord
100
AcDbDimStyleTableRecord
  2
ISO-25
 70
     0
  3

  4

  5

  6

  7

 40
1.0
 41
2.5
 42
0.625
 43
3.75
 44
1.25
 45
0.0
 46
0.0
 47
0.0
 48
0.0
140
2.5
141
2.5
142
0.0
143
0.03937007874016
144
1.0
145
0.0
146
1.0
147
0.625
 71
     0
 72
     0
 73
     0
 74
     0
 75
     0
 76
     0
 77
     1
 78
     8
170
     0
171
     3
172
     1
173
     0
174
     0
175
     0
176
     0
177
     0
178
     0
270
     2
271
     2
272
     2
273
     2
274
     3
340
11
275
     0
280
     0
281
     0
282
     0
283
     0
284
     8
285
     0
286
     0
287
     3
288
     0
  0
ENDTAB
  0
TABLE
  2
BLOCK_RECORD
  5
1
330
0
100
AcDbSymbolTable
 70
     1
  0
BLOCK_RECORD
  5
1F
330
1
100
AcDbSymbolTableRecord
100
AcDbBlockTableRecord
  2
*MODEL_SPACE
  0
BLOCK_RECORD
  5
1B
330
1
100
AcDbSymbolTableRecord
100
AcDbBlockTableRecord
  2
*PAPER_SPACE
  0
ENDTAB
  0
ENDSEC
  0
SECTION
  2
BLOCKS
  0
BLOCK
  5
20
330
1F
100
AcDbEntity
  8
0
100
AcDbBlockBegin
  2
*MODEL_SPACE
 70
     0
 10
0.0
 20
0.0
 30
0.0
  3
*MODEL_SPACE
  1

  0
ENDBLK
  5
21
330
1F
100
AcDbEntity
  8
0
100
AcDbBlockEnd
  0
BLOCK
  5
1C
330
1B
100
AcDbEntity
 67
     1
  8
0
100
AcDbBlockBegin
  2
*PAPER_SPACE
  1

  0
ENDBLK
  5
1D
330
1B
100
AcDbEntity
 67
     1
  8
0
100
AcDbBlockEnd
  0
ENDSEC
  0
SECTION
  2
ENTITIES
  0
SPLINE
  5
100
100
AcDbEntity
  8
Logo
 62
7
100
AcDbSpline
 70
8
 71
3
 72
8
 73
4
 74
0
 40
0
 40
0
 40
0
 40
0
 40
1
 40
1
 40
1
 40
1
 10
3.237236
 20
38.871231
 30
0.0
 10
1.457975
 20
38.871231
 30
0.0
 10
0.000908
 20
37.414161
 30
0.0
 10
0.000908
 20
35.634901
 30
0.0
  0
SPLINE
  5
101
100
AcDbEntity
  8
Logo
 62
7
100
AcDbSpline
 70
8
 71
3
 72
8
 73
4
 74
0
 40
0
 40
0
 40
0
 40
0
 40
1
 40
1
 40
1
 40
1
 10
0.000908
 20
3.236461
 30
0.0
 10
0.000908
 20
1.457201
 30
0.0
 10
1.457975
 20
0.000131
 30
0.0
 10
3.237236
 20
0.000131
 30
0.0
  0
LWPOLYLINE
  5
102
100
AcDbEntity
  8
Logo
 62
7
100
AcDbPolyline
 90
2
 70
0
 10
0.000908
 20
35.634901
 30
0.0
 10
0.000908
 20
3.236461
 30
0.0
  0
SPLINE
  5
103
100
AcDbEntity
  8
Logo
 62
7
100
AcDbSpline
 70
8
 71
3
 72
8
 73
4
 74
0
 40
0
 40
0
 40
0
 40
0
 40
1
 40
1
 40
1
 40
1
 10
188.889580
 20
0.000131
 30
0.0
 10
190.668840
 20
0.000131
 30
0.0
 10
192.125910
 20
1.457201
 30
0.0
 10
192.125910
 20
3.236461
 30
0.0
  0
LWPOLYLINE
  5
104
100
AcDbEntity
  8
Logo
 62
7
100
AcDbPolyline
 90
2
 70
0
 10
3.237236
 20
0.000131
 30
0.0
 10
188.889580
 20
0.000131
 30
0.0
  0
SPLINE
  5
105
100
AcDbEntity
  8
Logo
 62
7
100
AcDbSpline
 70
8
 71
3
 72
8
 73
4
 74
0
 40
0
 40
0
 40
0
 40
0
 40
1
 40
1
 40
1
 40
1
 10
192.125910
 20
35.634901
 30
0.0
 10
192.125910
 20
37.414161
 30
0.0
 10
190.668840
 20
38.871231
 30
0.0
 10
188.889580
 20
38.871231
 30
0.0
  0
LWPOLYLINE
  5
106
100
AcDbEntity
  8
Logo
 62
7
100
AcDbPolyline
 90
2
 70
0
 10
192.125910
 20
3.236461
 30
0.0
 10
192.125910
 20
35.634901
 30
0.0
  0
LWPOLYLINE
  5
107
100
AcDbEntity
  8
Logo
 62
7
100
AcDbPolyline
 90
2
 70
0
 10
188.889580
 20
38.871231
 30
0.0
 10
3.237236
 20
38.871231
 30
0.0
  0
SPLINE
  5
108
100
AcDbEntity
  8
Logo
 62
7
100
AcDbSpline
 70
8
 71
3
 72
8
 73
4
 74
0
 40
0
 40
0
 40
0
 40
0
 40
1
 40
1
 40
1
 40
1
 10
188.889580
 20
37.271621
 30
0.0
 10
189.810080
 20
37.271621
 30
0.0
 10
190.526300
 20
36.555401
 30
0.0
 10
190.526300
 20
35.634901
 30
0.0
  0
LWPOLYLINE
  5
109
100
AcDbEntity
  8
Logo
 62
7
100
AcDbPolyline
 90
2
 70
0
 10
3.237236
 20
37.271621
 30
0.0
 10
188.889580
 20
37.271621
 30
0.0
  0
SPLINE
  5
10a
100
AcDbEntity
  8
Logo
 62
7
100
AcDbSpline
 70
8
 71
3
 72
8
 73
4
 74
0
 40
0
 40
0
 40
0
 40
0
 40
1
 40
1
 40
1
 40
1
 10
190.526300
 20
3.236461
 30
0.0
 10
190.526300
 20
2.315961
 30
0.0
 10
189.810080
 20
1.599741
 30
0.0
 10
188.889580
 20
1.599741
 30
0.0
  0
LWPOLYLINE
  5
10b
100
AcDbEntity
  8
Logo
 62
7
100
AcDbPolyline
 90
2
 70
0
 10
190.526300
 20
35.634901
 30
0.0
 10
190.526300
 20
3.236461
 30
0.0
  0
SPLINE
  5
10c
100
AcDbEntity
  8
Logo
 62
7
100
AcDbSpline
 70
8
 71
3
 72
8
 73
4
 74
0
 40
0
 40
0
 40
0
 40
0
 40
1
 40
1
 40
1
 40
1
 10
3.237236
 20
1.599741
 30
0.0
 10
2.316731
 20
1.599741
 30
0.0
 10
1.600518
 20
2.315961
 30
0.0
 10
1.600518
 20
3.236461
 30
0.0
  0
LWPOLYLINE
  5
10d
100
AcDbEntity
  8
Logo
 62
7
100
AcDbPolyline
 90
2
 70
0
 10
188.889580
 20
1.599741
 30
0.0
 10
3.237236
 20
1.599741
 30
0.0
  0
SPLINE
  5
10e
100
AcDbEntity
  8
Logo
 62
7
100
AcDbSpline
 70
8
 71
3
 72
8
 73
4
 74
0
 40
0
 40
0
 40
0
 40
0
 40
1
 40
1
 40
1
 40
1
 10
1.600518
 20
35.634901
 30
0.0
 10
1.600518
 20
36.555401
 30
0.0
 10
2.316731
 20
37.271621
 30
0.0
 10
3.237236
 20
37.271621
 30
0.0
  0
LWPOLYLINE
  5
10f
100
AcDbEntity
  8
Logo
 62
7
100
AcDbPolyline
 90
2
 70
0
 10
1.600518
 20
3.236461
 30
0.0
 10
1.600518
 20
35.634901
 30
0.0
  0
LWPOLYLINE
  5
110
100
AcDbEntity
  8
Logo
 62
7
100
AcDbPolyline
 90
1
 70
1
 10
3.237236
 20
37.271621
 30
0.0
  0
LWPOLYLINE
  5
111
100
AcDbEntity
  8
Logo
 62
7
100
AcDbPolyline
 90
6
 70
1
 10
46.165682
 20
12.688811
 30
0.0
 10
46.165682
 20
23.113401
 30
0.0
 10
43.555124
 20
23.113401
 30
0.0
 10
43.555124
 20
25.036041
 30
0.0
 10
48.458739
 20
25.036041
 30
0.0
 10
48.458739
 20
12.688811
 30
0.0
  0
LWPOLYLINE
  5
112
100
AcDbEntity
  8
Logo
 62
7
100
AcDbPolyline
 90
4
 70
1
 10
51.154854
 20
16.675201
 30
0.0
 10
51.154854
 20
18.509651
 30
0.0
 10
56.005552
 20
18.509651
 30
0.0
 10
56.005552
 20
16.675201
 30
0.0
  0
LWPOLYLINE
  5
113
100
AcDbEntity
  8
Logo
 62
7
100
AcDbPolyline
 90
13
 70
1
 10
61.153476
 20
12.688811
 30
0.0
 10
57.061251
 20
25.036041
 30
0.0
 10
59.442502
 20
25.036041
 30
0.0
 10
62.511671
 20
15.652141
 30
0.0
 10
65.704312
 20
25.036041
 30
0.0
 10
67.820980
 20
25.036041
 30
0.0
 10
70.943065
 20
15.599231
 30
0.0
 10
74.100429
 20
25.036041
 30
0.0
 10
76.287652
 20
25.036041
 30
0.0
 10
72.195427
 20
12.688811
 30
0.0
 10
69.761259
 20
12.688811
 30
0.0
 10
66.709729
 20
21.808121
 30
0.0
 10
63.605283
 20
12.688811
 30
0.0
  0
SPLINE
  5
114
100
AcDbEntity
  8
Logo
 62
7
100
AcDbSpline
 70
8
 71
3
 72
8
 73
4
 74
0
 40
0
 40
0
 40
0
 40
0
 40
1
 40
1
 40
1
 40
1
 10
79.195439
 20
23.660201
 30
0.0
 10
78.783865
 20
23.660201
 30
0.0
 10
78.442846
 20
23.789554
 30
0.0
 10
78.172383
 20
24.048261
 30
0.0
  0
SPLINE
  5
115
100
AcDbEntity
  8
Logo
 62
7
100
AcDbSpline
 70
8
 71
3
 72
8
 73
4
 74
0
 40
0
 40
0
 40
0
 40
0
 40
1
 40
1
 40
1
 40
1
 10
78.172383
 20
24.048261
 30
0.0
 10
77.913679
 20
24.306968
 30
0.0
 10
77.784327
 20
24.618588
 30
0.0
 10
77.784327
 20
24.983121
 30
0.0
  0
SPLINE
  5
116
100
AcDbEntity
  8
Logo
 62
7
100
AcDbSpline
 70
8
 71
3
 72
8
 73
4
 74
0
 40
0
 40
0
 40
0
 40
0
 40
1
 40
1
 40
1
 40
1
 10
77.784327
 20
24.983121
 30
0.0
 10
77.784327
 20
25.347661
 30
0.0
 10
77.913679
 20
25.659281
 30
0.0
 10
78.172383
 20
25.917981
 30
0.0
  0
SPLINE
  5
117
100
AcDbEntity
  8
Logo
 62
7
100
AcDbSpline
 70
8
 71
3
 72
8
 73
4
 74
0
 40
0
 40
0
 40
0
 40
0
 40
1
 40
1
 40
1
 40
1
 10
78.172383
 20
25.917981
 30
0.0
 10
78.442846
 20
26.176688
 30
0.0
 10
78.783865
 20
26.306041
 30
0.0
 10
79.195439
 20
26.306041
 30
0.0
  0
SPLINE
  5
118
100
AcDbEntity
  8
Logo
 62
7
100
AcDbSpline
 70
8
 71
3
 72
8
 73
4
 74
0
 40
0
 40
0
 40
0
 40
0
 40
1
 40
1
 40
1
 40
1
 10
79.195439
 20
26.306041
 30
0.0
 10
79.607014
 20
26.306041
 30
0.0
 10
79.942153
 20
26.182568
 30
0.0
 10
80.200856
 20
25.935621
 30
0.0
  0
SPLINE
  5
119
100
AcDbEntity
  8
Logo
 62
7
100
AcDbSpline
 70
8
 71
3
 72
8
 73
4
 74
0
 40
0
 40
0
 40
0
 40
0
 40
1
 40
1
 40
1
 40
1
 10
80.200856
 20
25.935621
 30
0.0
 10
80.471319
 20
25.700434
 30
0.0
 10
80.606551
 20
25.400574
 30
0.0
 10
80.606551
 20
25.036041
 30
0.0
  0
SPLINE
  5
11a
100
AcDbEntity
  8
Logo
 62
7
100
AcDbSpline
 70
8
 71
3
 72
8
 73
4
 74
0
 40
0
 40
0
 40
0
 40
0
 40
1
 40
1
 40
1
 40
1
 10
80.606551
 20
25.036041
 30
0.0
 10
80.606551
 20
24.647981
 30
0.0
 10
80.471319
 20
24.318721
 30
0.0
 10
80.200856
 20
24.048261
 30
0.0
  0
SPLINE
  5
11b
100
AcDbEntity
  8
Logo
 62
7
100
AcDbSpline
 70
8
 71
3
 72
8
 73
4
 74
0
 40
0
 40
0
 40
0
 40
0
 40
1
 40
1
 40
1
 40
1
 10
80.200856
 20
24.048261
 30
0.0
 10
79.942153
 20
23.789554
 30
0.0
 10
79.607014
 20
23.660201
 30
0.0
 10
79.195439
 20
23.660201
 30
0.0
  0
LWPOLYLINE
  5
11c
100
AcDbEntity
  8
Logo
 62
7
100
AcDbPolyline
 90
4
 70
1
 10
78.084188
 20
12.688811
 30
0.0
 10
78.084188
 20
22.107981
 30
0.0
 10
80.289051
 20
22.107981
 30
0.0
 10
80.289051
 20
12.688811
 30
0.0
  0
LWPOLYLINE
  5
11d
100
AcDbEntity
  8
Logo
 62
7
100
AcDbPolyline
 90
1
 70
1
 10
79.195439
 20
23.660201
 30
0.0
  0
SPLINE
  5
11e
100
AcDbEntity
  8
Logo
 62
7
100
AcDbSpline
 70
8
 71
3
 72
8
 73
4
 74
0
 40
0
 40
0
 40
0
 40
0
 40
1
 40
1
 40
1
 40
1
 10
85.331121
 20
20.732151
 30
0.0
 10
85.977881
 20
21.719924
 30
0.0
 10
87.095011
 20
22.213811
 30
0.0
 10
88.682512
 20
22.213811
 30
0.0
  0
LWPOLYLINE
  5
11f
100
AcDbEntity
  8
Logo
 62
7
100
AcDbPolyline
 90
4
 70
0
 10
83.232092
 20
12.688811
 30
0.0
 10
83.232092
 20
22.107981
 30
0.0
 10
85.331121
 20
22.107981
 30
0.0
 10
85.331121
 20
20.732151
 30
0.0
  0
SPLINE
  5
120
100
AcDbEntity
  8
Logo
 62
7
100
AcDbSpline
 70
8
 71
3
 72
8
 73
4
 74
0
 40
0
 40
0
 40
0
 40
0
 40
1
 40
1
 40
1
 40
1
 10
88.682512
 20
20.114791
 30
0.0
 10
88.588438
 20
20.126524
 30
0.0
 10
88.500244
 20
20.138291
 30
0.0
 10
88.417929
 20
20.150091
 30
0.0
  0
SPLINE
  5
121
100
AcDbEntity
  8
Logo
 62
7
100
AcDbSpline
 70
8
 71
3
 72
8
 73
4
 74
0
 40
0
 40
0
 40
0
 40
0
 40
1
 40
1
 40
1
 40
1
 10
88.417929
 20
20.150091
 30
0.0
 10
88.335614
 20
20.161824
 30
0.0
 10
88.253299
 20
20.167691
 30
0.0
 10
88.170984
 20
20.167691
 30
0.0
  0
SPLINE
  5
122
100
AcDbEntity
  8
Logo
 62
7
100
AcDbSpline
 70
8
 71
3
 72
8
 73
4
 74
0
 40
0
 40
0
 40
0
 40
0
 40
1
 40
1
 40
1
 40
1
 10
88.170984
 20
20.167691
 30
0.0
 10
87.336076
 20
20.167691
 30
0.0
 10
86.671677
 20
19.920748
 30
0.0
 10
86.177788
 20
19.426861
 30
0.0
  0
SPLINE
  5
123
100
AcDbEntity
  8
Logo
 62
7
100
AcDbSpline
 70
8
 71
3
 72
8
 73
4
 74
0
 40
0
 40
0
 40
0
 40
0
 40
1
 40
1
 40
1
 40
1
 10
86.177788
 20
19.426861
 30
0.0
 10
85.683899
 20
18.944728
 30
0.0
 10
85.436954
 20
18.221531
 30
0.0
 10
85.436954
 20
17.257271
 30
0.0
  0
LWPOLYLINE
  5
124
100
AcDbEntity
  8
Logo
 62
7
100
AcDbPolyline
 90
2
 70
0
 10
88.682512
 20
22.213811
 30
0.0
 10
88.682512
 20
20.114791
 30
0.0
  0
SPLINE
  5
125
100
AcDbEntity
  8
Logo
 62
7
100
AcDbSpline
 70
8
 71
3
 72
8
 73
4
 74
0
 40
0
 40
0
 40
0
 40
0
 40
1
 40
1
 40
1
 40
1
 10
94.941670
 20
12.565341
 30
0.0
 10
93.895097
 20
12.565341
 30
0.0
 10
92.977877
 20
12.771128
 30
0.0
 10
92.190010
 20
13.182701
 30
0.0
  0
SPLINE
  5
126
100
AcDbEntity
  8
Logo
 62
7
100
AcDbSpline
 70
8
 71
3
 72
8
 73
4
 74
0
 40
0
 40
0
 40
0
 40
0
 40
1
 40
1
 40
1
 40
1
 10
92.190010
 20
13.182701
 30
0.0
 10
91.413896
 20
13.606034
 30
0.0
 10
90.808293
 20
14.176358
 30
0.0
 10
90.373200
 20
14.893671
 30
0.0
  0
SPLINE
  5
127
100
AcDbEntity
  8
Logo
 62
7
100
AcDbSpline
 70
8
 71
3
 72
8
 73
4
 74
0
 40
0
 40
0
 40
0
 40
0
 40
1
 40
1
 40
1
 40
1
 10
90.373200
 20
14.893671
 30
0.0
 10
89.949866
 20
15.622744
 30
0.0
 10
89.738199
 20
16.457651
 30
0.0
 10
89.738199
 20
17.398391
 30
0.0
  0
SPLINE
  5
128
100
AcDbEntity
  8
Logo
 62
7
100
AcDbSpline
 70
8
 71
3
 72
8
 73
4
 74
0
 40
0
 40
0
 40
0
 40
0
 40
1
 40
1
 40
1
 40
1
 10
89.738199
 20
17.398391
 30
0.0
 10
89.738199
 20
18.339138
 30
0.0
 10
89.943986
 20
19.168168
 30
0.0
 10
90.355561
 20
19.885481
 30
0.0
  0
SPLINE
  5
129
100
AcDbEntity
  8
Logo
 62
7
100
AcDbSpline
 70
8
 71
3
 72
8
 73
4
 74
0
 40
0
 40
0
 40
0
 40
0
 40
1
 40
1
 40
1
 40
1
 10
90.355561
 20
19.885481
 30
0.0
 10
90.778894
 20
20.614554
 30
0.0
 10
91.355097
 20
21.184878
 30
0.0
 10
92.084170
 20
21.596451
 30
0.0
  0
SPLINE
  5
12a
100
AcDbEntity
  8
Logo
 62
7
100
AcDbSpline
 70
8
 71
3
 72
8
 73
4
 74
0
 40
0
 40
0
 40
0
 40
0
 40
1
 40
1
 40
1
 40
1
 10
92.084170
 20
21.596451
 30
0.0
 10
92.825003
 20
22.008024
 30
0.0
 10
93.665793
 20
22.213811
 30
0.0
 10
94.606540
 20
22.213811
 30
0.0
  0
SPLINE
  5
12b
100
AcDbEntity
  8
Logo
 62
7
100
AcDbSpline
 70
8
 71
3
 72
8
 73
4
 74
0
 40
0
 40
0
 40
0
 40
0
 40
1
 40
1
 40
1
 40
1
 10
94.606540
 20
22.213811
 30
0.0
 10
95.523760
 20
22.213811
 30
0.0
 10
96.341027
 20
22.013904
 30
0.0
 10
97.058340
 20
21.614091
 30
0.0
  0
SPLINE
  5
12c
100
AcDbEntity
  8
Logo
 62
7
100
AcDbSpline
 70
8
 71
3
 72
8
 73
4
 74
0
 40
0
 40
0
 40
0
 40
0
 40
1
 40
1
 40
1
 40
1
 10
97.058340
 20
21.614091
 30
0.0
 10
97.775660
 20
21.214278
 30
0.0
 10
98.340107
 20
20.643954
 30
0.0
 10
98.751680
 20
19.903121
 30
0.0
  0
SPLINE
  5
12d
100
AcDbEntity
  8
Logo
 62
7
100
AcDbSpline
 70
8
 71
3
 72
8
 73
4
 74
0
 40
0
 40
0
 40
0
 40
0
 40
1
 40
1
 40
1
 40
1
 10
98.751680
 20
19.903121
 30
0.0
 10
99.163253
 20
19.174048
 30
0.0
 10
99.369040
 20
18.321501
 30
0.0
 10
99.369040
 20
17.345481
 30
0.0
  0
SPLINE
  5
12e
100
AcDbEntity
  8
Logo
 62
7
100
AcDbSpline
 70
8
 71
3
 72
8
 73
4
 74
0
 40
0
 40
0
 40
0
 40
0
 40
1
 40
1
 40
1
 40
1
 10
99.369040
 20
17.345481
 30
0.0
 10
99.369040
 20
17.251408
 30
0.0
 10
99.363173
 20
17.145574
 30
0.0
 10
99.351440
 20
17.027981
 30
0.0
  0
SPLINE
  5
12f
100
AcDbEntity
  8
Logo
 62
7
100
AcDbSpline
 70
8
 71
3
 72
8
 73
4
 74
0
 40
0
 40
0
 40
0
 40
0
 40
1
 40
1
 40
1
 40
1
 10
99.351440
 20
17.027981
 30
0.0
 10
99.351440
 20
16.910388
 30
0.0
 10
99.345573
 20
16.798674
 30
0.0
 10
99.333840
 20
16.692841
 30
0.0
  0
LWPOLYLINE
  5
130
100
AcDbEntity
  8
Logo
 62
7
100
AcDbPolyline
 90
3
 70
0
 10
85.436954
 20
17.257271
 30
0.0
 10
85.436954
 20
12.688801
 30
0.0
 10
83.232092
 20
12.688811
 30
0.0
  0
SPLINE
  5
131
100
AcDbEntity
  8
Logo
 62
7
100
AcDbSpline
 70
8
 71
3
 72
8
 73
4
 74
0
 40
0
 40
0
 40
0
 40
0
 40
1
 40
1
 40
1
 40
1
 10
91.943140
 20
16.692841
 30
0.0
 10
92.072493
 20
16.010801
 30
0.0
 10
92.407633
 20
15.463994
 30
0.0
 10
92.948560
 20
15.052421
 30
0.0
  0
SPLINE
  5
132
100
AcDbEntity
  8
Logo
 62
7
100
AcDbSpline
 70
8
 71
3
 72
8
 73
4
 74
0
 40
0
 40
0
 40
0
 40
0
 40
1
 40
1
 40
1
 40
1
 10
92.948560
 20
15.052421
 30
0.0
 10
93.489487
 20
14.640848
 30
0.0
 10
94.171523
 20
14.435061
 30
0.0
 10
94.994670
 20
14.435061
 30
0.0
  0
SPLINE
  5
133
100
AcDbEntity
  8
Logo
 62
7
100
AcDbSpline
 70
8
 71
3
 72
8
 73
4
 74
0
 40
0
 40
0
 40
0
 40
0
 40
1
 40
1
 40
1
 40
1
 10
94.994670
 20
14.435061
 30
0.0
 10
96.041243
 20
14.435061
 30
0.0
 10
96.893790
 20
14.776081
 30
0.0
 10
97.552310
 20
15.458121
 30
0.0
  0
LWPOLYLINE
  5
134
100
AcDbEntity
  8
Logo
 62
7
100
AcDbPolyline
 90
2
 70
0
 10
99.333840
 20
16.692841
 30
0.0
 10
91.943140
 20
16.692841
 30
0.0
  0
SPLINE
  5
135
100
AcDbEntity
  8
Logo
 62
7
100
AcDbSpline
 70
8
 71
3
 72
8
 73
4
 74
0
 40
0
 40
0
 40
0
 40
0
 40
1
 40
1
 40
1
 40
1
 10
98.734120
 20
14.099921
 30
0.0
 10
97.863933
 20
13.076868
 30
0.0
 10
96.599810
 20
12.565341
 30
0.0
 10
94.941750
 20
12.565341
 30
0.0
  0
LWPOLYLINE
  5
136
100
AcDbEntity
  8
Logo
 62
7
100
AcDbPolyline
 90
2
 70
0
 10
97.552310
 20
15.458121
 30
0.0
 10
98.734120
 20
14.099921
 30
0.0
  0
LWPOLYLINE
  5
137
100
AcDbEntity
  8
Logo
 62
7
100
AcDbPolyline
 90
1
 70
1
 10
94.941750
 20
12.565341
 30
0.0
  0
SPLINE
  5
138
100
AcDbEntity
  8
Logo
 62
7
100
AcDbSpline
 70
8
 71
3
 72
8
 73
4
 74
0
 40
0
 40
0
 40
0
 40
0
 40
1
 40
1
 40
1
 40
1
 10
97.270010
 20
18.156871
 30
0.0
 10
97.175937
 20
18.838904
 30
0.0
 10
96.887833
 20
19.391588
 30
0.0
 10
96.405700
 20
19.814921
 30
0.0
  0
SPLINE
  5
139
100
AcDbEntity
  8
Logo
 62
7
100
AcDbSpline
 70
8
 71
3
 72
8
 73
4
 74
0
 40
0
 40
0
 40
0
 40
0
 40
1
 40
1
 40
1
 40
1
 10
96.405700
 20
19.814921
 30
0.0
 10
95.923573
 20
20.238254
 30
0.0
 10
95.323853
 20
20.449921
 30
0.0
 10
94.606540
 20
20.449921
 30
0.0
  0
SPLINE
  5
13a
100
AcDbEntity
  8
Logo
 62
7
100
AcDbSpline
 70
8
 71
3
 72
8
 73
4
 74
0
 40
0
 40
0
 40
0
 40
0
 40
1
 40
1
 40
1
 40
1
 10
94.606540
 20
20.449921
 30
0.0
 10
93.889220
 20
20.449921
 30
0.0
 10
93.289497
 20
20.238254
 30
0.0
 10
92.807370
 20
19.814921
 30
0.0
  0
SPLINE
  5
13b
100
AcDbEntity
  8
Logo
 62
7
100
AcDbSpline
 70
8
 71
3
 72
8
 73
4
 74
0
 40
0
 40
0
 40
0
 40
0
 40
1
 40
1
 40
1
 40
1
 10
92.807370
 20
19.814921
 30
0.0
 10
92.325237
 20
19.403348
 30
0.0
 10
92.031253
 20
18.850664
 30
0.0
 10
91.925420
 20
18.156871
 30
0.0
  0
LWPOLYLINE
  5
13c
100
AcDbEntity
  8
Logo
 62
7
100
AcDbPolyline
 90
2
 70
0
 10
91.925420
 20
18.156871
 30
0.0
 10
97.270010
 20
18.156871
 30
0.0
  0
LWPOLYLINE
  5
13d
100
AcDbEntity
  8
Logo
 62
7
100
AcDbPolyline
 90
1
 70
1
 10
91.925420
 20
18.156871
 30
0.0
  0
LWPOLYLINE
  5
13e
100
AcDbEntity
  8
Logo
 62
7
100
AcDbPolyline
 90
4
 70
1
 10
106.666230
 20
12.688811
 30
0.0
 10
106.666230
 20
25.036041
 30
0.0
 10
108.959290
 20
25.036041
 30
0.0
 10
108.959290
 20
12.688811
 30
0.0
  0
SPLINE
  5
13f
100
AcDbEntity
  8
Logo
 62
7
100
AcDbSpline
 70
8
 71
3
 72
8
 73
4
 74
0
 40
0
 40
0
 40
0
 40
0
 40
1
 40
1
 40
1
 40
1
 10
114.230680
 20
20.890901
 30
0.0
 10
114.595220
 20
21.325994
 30
0.0
 10
115.053830
 20
21.655254
 30
0.0
 10
115.606510
 20
21.878681
 30
0.0
  0
SPLINE
  5
140
100
AcDbEntity
  8
Logo
 62
7
100
AcDbSpline
 70
8
 71
3
 72
8
 73
4
 74
0
 40
0
 40
0
 40
0
 40
0
 40
1
 40
1
 40
1
 40
1
 10
115.606510
 20
21.878681
 30
0.0
 10
116.170957
 20
22.102101
 30
0.0
 10
116.794200
 20
22.213811
 30
0.0
 10
117.476240
 20
22.213811
 30
0.0
  0
SPLINE
  5
141
100
AcDbEntity
  8
Logo
 62
7
100
AcDbSpline
 70
8
 71
3
 72
8
 73
4
 74
0
 40
0
 40
0
 40
0
 40
0
 40
1
 40
1
 40
1
 40
1
 10
117.476240
 20
22.213811
 30
0.0
 10
118.228833
 20
22.213811
 30
0.0
 10
118.899110
 20
22.066821
 30
0.0
 10
119.487070
 20
21.772841
 30
0.0
  0
SPLINE
  5
142
100
AcDbEntity
  8
Logo
 62
7
100
AcDbSpline
 70
8
 71
3
 72
8
 73
4
 74
0
 40
0
 40
0
 40
0
 40
0
 40
1
 40
1
 40
1
 40
1
 10
119.487070
 20
21.772841
 30
0.0
 10
120.086797
 20
21.478861
 30
0.0
 10
120.557167
 20
21.026131
 30
0.0
 10
120.898180
 20
20.414651
 30
0.0
  0
SPLINE
  5
143
100
AcDbEntity
  8
Logo
 62
7
100
AcDbSpline
 70
8
 71
3
 72
8
 73
4
 74
0
 40
0
 40
0
 40
0
 40
0
 40
1
 40
1
 40
1
 40
1
 10
120.898180
 20
20.414651
 30
0.0
 10
121.239200
 20
19.803164
 30
0.0
 10
121.409710
 20
19.027051
 30
0.0
 10
121.409710
 20
18.086311
 30
0.0
  0
LWPOLYLINE
  5
144
100
AcDbEntity
  8
Logo
 62
7
100
AcDbPolyline
 90
4
 70
0
 10
112.131650
 20
12.688811
 30
0.0
 10
112.131650
 20
22.107981
 30
0.0
 10
114.230680
 20
22.107981
 30
0.0
 10
114.230680
 20
20.890901
 30
0.0
  0
SPLINE
  5
145
100
AcDbEntity
  8
Logo
 62
7
100
AcDbSpline
 70
8
 71
3
 72
8
 73
4
 74
0
 40
0
 40
0
 40
0
 40
0
 40
1
 40
1
 40
1
 40
1
 10
119.204850
 20
17.804091
 30
0.0
 10
119.204850
 20
18.638998
 30
0.0
 10
119.004943
 20
19.262238
 30
0.0
 10
118.605130
 20
19.673811
 30
0.0
  0
SPLINE
  5
146
100
AcDbEntity
  8
Logo
 62
7
100
AcDbSpline
 70
8
 71
3
 72
8
 73
4
 74
0
 40
0
 40
0
 40
0
 40
0
 40
1
 40
1
 40
1
 40
1
 10
118.605130
 20
19.673811
 30
0.0
 10
118.217070
 20
20.085384
 30
0.0
 10
117.670263
 20
20.291171
 30
0.0
 10
116.964710
 20
20.291171
 30
0.0
  0
SPLINE
  5
147
100
AcDbEntity
  8
Logo
 62
7
100
AcDbSpline
 70
8
 71
3
 72
8
 73
4
 74
0
 40
0
 40
0
 40
0
 40
0
 40
1
 40
1
 40
1
 40
1
 10
116.964710
 20
20.291171
 30
0.0
 10
116.176837
 20
20.291171
 30
0.0
 10
115.541837
 20
20.050108
 30
0.0
 10
115.059710
 20
19.567981
 30
0.0
  0
SPLINE
  5
148
100
AcDbEntity
  8
Logo
 62
7
100
AcDbSpline
 70
8
 71
3
 72
8
 73
4
 74
0
 40
0
 40
0
 40
0
 40
0
 40
1
 40
1
 40
1
 40
1
 10
115.059710
 20
19.567981
 30
0.0
 10
114.577577
 20
19.097608
 30
0.0
 10
114.336510
 20
18.392051
 30
0.0
 10
114.336510
 20
17.451311
 30
0.0
  0
LWPOLYLINE
  5
149
100
AcDbEntity
  8
Logo
 62
7
100
AcDbPolyline
 90
4
 70
0
 10
121.409710
 20
18.086311
 30
0.0
 10
121.409710
 20
12.688811
 30
0.0
 10
119.204850
 20
12.688811
 30
0.0
 10
119.204850
 20
17.804091
 30
0.0
  0
SPLINE
  5
14a
100
AcDbEntity
  8
Logo
 62
7
100
AcDbSpline
 70
8
 71
3
 72
8
 73
4
 74
0
 40
0
 40
0
 40
0
 40
0
 40
1
 40
1
 40
1
 40
1
 10
127.809970
 20
12.565341
 30
0.0
 10
126.775157
 20
12.565341
 30
0.0
 10
125.975527
 20
12.829924
 30
0.0
 10
125.411080
 20
13.359091
 30
0.0
  0
SPLINE
  5
14b
100
AcDbEntity
  8
Logo
 62
7
100
AcDbSpline
 70
8
 71
3
 72
8
 73
4
 74
0
 40
0
 40
0
 40
0
 40
0
 40
1
 40
1
 40
1
 40
1
 10
125.411080
 20
13.359091
 30
0.0
 10
124.846640
 20
13.900018
 30
0.0
 10
124.564420
 20
14.693768
 30
0.0
 10
124.564420
 20
15.740341
 30
0.0
  0
LWPOLYLINE
  5
14c
100
AcDbEntity
  8
Logo
 62
7
100
AcDbPolyline
 90
3
 70
0
 10
114.336510
 20
17.451311
 30
0.0
 10
114.336510
 20
12.688811
 30
0.0
 10
112.131650
 20
12.688811
 30
0.0
  0
SPLINE
  5
14d
100
AcDbEntity
  8
Logo
 62
7
100
AcDbSpline
 70
8
 71
3
 72
8
 73
4
 74
0
 40
0
 40
0
 40
0
 40
0
 40
1
 40
1
 40
1
 40
1
 10
126.769280
 20
15.793251
 30
0.0
 10
126.769280
 20
15.334644
 30
0.0
 10
126.880993
 20
14.981868
 30
0.0
 10
127.104420
 20
14.734921
 30
0.0
  0
SPLINE
  5
14e
100
AcDbEntity
  8
Logo
 62
7
100
AcDbSpline
 70
8
 71
3
 72
8
 73
4
 74
0
 40
0
 40
0
 40
0
 40
0
 40
1
 40
1
 40
1
 40
1
 10
127.104420
 20
14.734921
 30
0.0
 10
127.327847
 20
14.499734
 30
0.0
 10
127.651227
 20
14.382141
 30
0.0
 10
128.074560
 20
14.382141
 30
0.0
  0
SPLINE
  5
14f
100
AcDbEntity
  8
Logo
 62
7
100
AcDbSpline
 70
8
 71
3
 72
8
 73
4
 74
0
 40
0
 40
0
 40
0
 40
0
 40
1
 40
1
 40
1
 40
1
 10
128.074560
 20
14.382141
 30
0.0
 10
128.556687
 20
14.382141
 30
0.0
 10
128.968260
 20
14.511494
 30
0.0
 10
129.309280
 20
14.770201
 30
0.0
  0
LWPOLYLINE
  5
150
100
AcDbEntity
  8
Logo
 62
7
100
AcDbPolyline
 90
12
 70
0
 10
124.564420
 20
15.740341
 30
0.0
 10
124.564420
 20
20.344091
 30
0.0
 10
123.012190
 20
20.344091
 30
0.0
 10
123.012190
 20
22.107981
 30
0.0
 10
124.564420
 20
22.107981
 30
0.0
 10
124.564420
 20
24.189371
 30
0.0
 10
126.769280
 20
24.189371
 30
0.0
 10
126.769280
 20
22.107981
 30
0.0
 10
129.291640
 20
22.107981
 30
0.0
 10
129.291640
 20
20.344091
 30
0.0
 10
126.769280
 20
20.344091
 30
0.0
 10
126.769280
 20
15.793251
 30
0.0
  0
SPLINE
  5
151
100
AcDbEntity
  8
Logo
 62
7
100
AcDbSpline
 70
8
 71
3
 72
8
 73
4
 74
0
 40
0
 40
0
 40
0
 40
0
 40
1
 40
1
 40
1
 40
1
 10
129.926640
 20
13.200341
 30
0.0
 10
129.656180
 20
12.988674
 30
0.0
 10
129.332800
 20
12.829924
 30
0.0
 10
128.956500
 20
12.724091
 30
0.0
  0
SPLINE
  5
152
100
AcDbEntity
  8
Logo
 62
7
100
AcDbSpline
 70
8
 71
3
 72
8
 73
4
 74
0
 40
0
 40
0
 40
0
 40
0
 40
1
 40
1
 40
1
 40
1
 10
128.956500
 20
12.724091
 30
0.0
 10
128.591967
 20
12.618258
 30
0.0
 10
128.209790
 20
12.565341
 30
0.0
 10
127.809970
 20
12.565341
 30
0.0
  0
LWPOLYLINE
  5
153
100
AcDbEntity
  8
Logo
 62
7
100
AcDbPolyline
 90
2
 70
0
 10
129.309280
 20
14.770201
 30
0.0
 10
129.926640
 20
13.200341
 30
0.0
  0
SPLINE
  5
154
100
AcDbEntity
  8
Logo
 62
7
100
AcDbSpline
 70
8
 71
3
 72
8
 73
4
 74
0
 40
0
 40
0
 40
0
 40
0
 40
1
 40
1
 40
1
 40
1
 10
135.903590
 20
12.565341
 30
0.0
 10
134.857017
 20
12.565341
 30
0.0
 10
133.939793
 20
12.771128
 30
0.0
 10
133.151920
 20
13.182701
 30
0.0
  0
SPLINE
  5
155
100
AcDbEntity
  8
Logo
 62
7
100
AcDbSpline
 70
8
 71
3
 72
8
 73
4
 74
0
 40
0
 40
0
 40
0
 40
0
 40
1
 40
1
 40
1
 40
1
 10
133.151920
 20
13.182701
 30
0.0
 10
132.375807
 20
13.606034
 30
0.0
 10
131.770203
 20
14.176358
 30
0.0
 10
131.335110
 20
14.893671
 30
0.0
  0
SPLINE
  5
156
100
AcDbEntity
  8
Logo
 62
7
100
AcDbSpline
 70
8
 71
3
 72
8
 73
4
 74
0
 40
0
 40
0
 40
0
 40
0
 40
1
 40
1
 40
1
 40
1
 10
131.335110
 20
14.893671
 30
0.0
 10
130.911777
 20
15.622744
 30
0.0
 10
130.700110
 20
16.457651
 30
0.0
 10
130.700110
 20
17.398391
 30
0.0
  0
SPLINE
  5
157
100
AcDbEntity
  8
Logo
 62
7
100
AcDbSpline
 70
8
 71
3
 72
8
 73
4
 74
0
 40
0
 40
0
 40
0
 40
0
 40
1
 40
1
 40
1
 40
1
 10
130.700110
 20
17.398391
 30
0.0
 10
130.700110
 20
18.339138
 30
0.0
 10
130.905897
 20
19.168168
 30
0.0
 10
131.317470
 20
19.885481
 30
0.0
  0
SPLINE
  5
158
100
AcDbEntity
  8
Logo
 62
7
100
AcDbSpline
 70
8
 71
3
 72
8
 73
4
 74
0
 40
0
 40
0
 40
0
 40
0
 40
1
 40
1
 40
1
 40
1
 10
131.317470
 20
19.885481
 30
0.0
 10
131.740810
 20
20.614554
 30
0.0
 10
132.317017
 20
21.184878
 30
0.0
 10
133.046090
 20
21.596451
 30
0.0
  0
SPLINE
  5
159
100
AcDbEntity
  8
Logo
 62
7
100
AcDbSpline
 70
8
 71
3
 72
8
 73
4
 74
0
 40
0
 40
0
 40
0
 40
0
 40
1
 40
1
 40
1
 40
1
 10
133.046090
 20
21.596451
 30
0.0
 10
133.786923
 20
22.008024
 30
0.0
 10
134.627710
 20
22.213811
 30
0.0
 10
135.568450
 20
22.213811
 30
0.0
  0
SPLINE
  5
15a
100
AcDbEntity
  8
Logo
 62
7
100
AcDbSpline
 70
8
 71
3
 72
8
 73
4
 74
0
 40
0
 40
0
 40
0
 40
0
 40
1
 40
1
 40
1
 40
1
 10
135.568450
 20
22.213811
 30
0.0
 10
136.485670
 20
22.213811
 30
0.0
 10
137.302940
 20
22.013904
 30
0.0
 10
138.020260
 20
21.614091
 30
0.0
  0
SPLINE
  5
15b
100
AcDbEntity
  8
Logo
 62
7
100
AcDbSpline
 70
8
 71
3
 72
8
 73
4
 74
0
 40
0
 40
0
 40
0
 40
0
 40
1
 40
1
 40
1
 40
1
 10
138.020260
 20
21.614091
 30
0.0
 10
138.737573
 20
21.214278
 30
0.0
 10
139.302017
 20
20.643954
 30
0.0
 10
139.713590
 20
19.903121
 30
0.0
  0
SPLINE
  5
15c
100
AcDbEntity
  8
Logo
 62
7
100
AcDbSpline
 70
8
 71
3
 72
8
 73
4
 74
0
 40
0
 40
0
 40
0
 40
0
 40
1
 40
1
 40
1
 40
1
 10
139.713590
 20
19.903121
 30
0.0
 10
140.125163
 20
19.174048
 30
0.0
 10
140.330950
 20
18.321501
 30
0.0
 10
140.330950
 20
17.345481
 30
0.0
  0
SPLINE
  5
15d
100
AcDbEntity
  8
Logo
 62
7
100
AcDbSpline
 70
8
 71
3
 72
8
 73
4
 74
0
 40
0
 40
0
 40
0
 40
0
 40
1
 40
1
 40
1
 40
1
 10
140.330950
 20
17.345481
 30
0.0
 10
140.330950
 20
17.251408
 30
0.0
 10
140.325083
 20
17.145574
 30
0.0
 10
140.313350
 20
17.027981
 30
0.0
  0
SPLINE
  5
15e
100
AcDbEntity
  8
Logo
 62
7
100
AcDbSpline
 70
8
 71
3
 72
8
 73
4
 74
0
 40
0
 40
0
 40
0
 40
0
 40
1
 40
1
 40
1
 40
1
 10
140.313350
 20
17.027981
 30
0.0
 10
140.313350
 20
16.910388
 30
0.0
 10
140.307483
 20
16.798674
 30
0.0
 10
140.295750
 20
16.692841
 30
0.0
  0
LWPOLYLINE
  5
15f
100
AcDbEntity
  8
Logo
 62
7
100
AcDbPolyline
 90
1
 70
1
 10
127.809970
 20
12.565341
 30
0.0
  0
SPLINE
  5
160
100
AcDbEntity
  8
Logo
 62
7
100
AcDbSpline
 70
8
 71
3
 72
8
 73
4
 74
0
 40
0
 40
0
 40
0
 40
0
 40
1
 40
1
 40
1
 40
1
 10
132.905050
 20
16.692841
 30
0.0
 10
133.034397
 20
16.010801
 30
0.0
 10
133.369533
 20
15.463994
 30
0.0
 10
133.910460
 20
15.052421
 30
0.0
  0
SPLINE
  5
161
100
AcDbEntity
  8
Logo
 62
7
100
AcDbSpline
 70
8
 71
3
 72
8
 73
4
 74
0
 40
0
 40
0
 40
0
 40
0
 40
1
 40
1
 40
1
 40
1
 10
133.910460
 20
15.052421
 30
0.0
 10
134.451387
 20
14.640848
 30
0.0
 10
135.133427
 20
14.435061
 30
0.0
 10
135.956580
 20
14.435061
 30
0.0
  0
SPLINE
  5
162
100
AcDbEntity
  8
Logo
 62
7
100
AcDbSpline
 70
8
 71
3
 72
8
 73
4
 74
0
 40
0
 40
0
 40
0
 40
0
 40
1
 40
1
 40
1
 40
1
 10
135.956580
 20
14.435061
 30
0.0
 10
137.003153
 20
14.435061
 30
0.0
 10
137.855700
 20
14.776081
 30
0.0
 10
138.514220
 20
15.458121
 30
0.0
  0
LWPOLYLINE
  5
163
100
AcDbEntity
  8
Logo
 62
7
100
AcDbPolyline
 90
2
 70
0
 10
140.295750
 20
16.692841
 30
0.0
 10
132.905050
 20
16.692841
 30
0.0
  0
SPLINE
  5
164
100
AcDbEntity
  8
Logo
 62
7
100
AcDbSpline
 70
8
 71
3
 72
8
 73
4
 74
0
 40
0
 40
0
 40
0
 40
0
 40
1
 40
1
 40
1
 40
1
 10
139.696020
 20
14.099921
 30
0.0
 10
138.825833
 20
13.076868
 30
0.0
 10
137.561713
 20
12.565341
 30
0.0
 10
135.903660
 20
12.565341
 30
0.0
  0
LWPOLYLINE
  5
165
100
AcDbEntity
  8
Logo
 62
7
100
AcDbPolyline
 90
2
 70
0
 10
138.514220
 20
15.458121
 30
0.0
 10
139.696020
 20
14.099921
 30
0.0
  0
LWPOLYLINE
  5
166
100
AcDbEntity
  8
Logo
 62
7
100
AcDbPolyline
 90
1
 70
1
 10
135.903660
 20
12.565341
 30
0.0
  0
SPLINE
  5
167
100
AcDbEntity
  8
Logo
 62
7
100
AcDbSpline
 70
8
 71
3
 72
8
 73
4
 74
0
 40
0
 40
0
 40
0
 40
0
 40
1
 40
1
 40
1
 40
1
 10
138.231920
 20
18.156871
 30
0.0
 10
138.137847
 20
18.838904
 30
0.0
 10
137.849747
 20
19.391588
 30
0.0
 10
137.367620
 20
19.814921
 30
0.0
  0
SPLINE
  5
168
100
AcDbEntity
  8
Logo
 62
7
100
AcDbSpline
 70
8
 71
3
 72
8
 73
4
 74
0
 40
0
 40
0
 40
0
 40
0
 40
1
 40
1
 40
1
 40
1
 10
137.367620
 20
19.814921
 30
0.0
 10
136.885487
 20
20.238254
 30
0.0
 10
136.285763
 20
20.449921
 30
0.0
 10
135.568450
 20
20.449921
 30
0.0
  0
SPLINE
  5
169
100
AcDbEntity
  8
Logo
 62
7
100
AcDbSpline
 70
8
 71
3
 72
8
 73
4
 74
0
 40
0
 40
0
 40
0
 40
0
 40
1
 40
1
 40
1
 40
1
 10
135.568450
 20
20.449921
 30
0.0
 10
134.851137
 20
20.449921
 30
0.0
 10
134.251413
 20
20.238254
 30
0.0
 10
133.769280
 20
19.814921
 30
0.0
  0
SPLINE
  5
16a
100
AcDbEntity
  8
Logo
 62
7
100
AcDbSpline
 70
8
 71
3
 72
8
 73
4
 74
0
 40
0
 40
0
 40
0
 40
0
 40
1
 40
1
 40
1
 40
1
 10
133.769280
 20
19.814921
 30
0.0
 10
133.287153
 20
19.403348
 30
0.0
 10
132.993173
 20
18.850664
 30
0.0
 10
132.887340
 20
18.156871
 30
0.0
  0
LWPOLYLINE
  5
16b
100
AcDbEntity
  8
Logo
 62
7
100
AcDbPolyline
 90
2
 70
0
 10
132.887340
 20
18.156871
 30
0.0
 10
138.231920
 20
18.156871
 30
0.0
  0
LWPOLYLINE
  5
16c
100
AcDbEntity
  8
Logo
 62
7
100
AcDbPolyline
 90
1
 70
1
 10
132.887340
 20
18.156871
 30
0.0
  0
SPLINE
  5
16d
100
AcDbEntity
  8
Logo
 62
7
100
AcDbSpline
 70
8
 71
3
 72
8
 73
4
 74
0
 40
0
 40
0
 40
0
 40
0
 40
1
 40
1
 40
1
 40
1
 10
144.596910
 20
20.732151
 30
0.0
 10
145.243670
 20
21.719924
 30
0.0
 10
146.360803
 20
22.213811
 30
0.0
 10
147.948310
 20
22.213811
 30
0.0
  0
LWPOLYLINE
  5
16e
100
AcDbEntity
  8
Logo
 62
7
100
AcDbPolyline
 90
4
 70
0
 10
142.497880
 20
12.688811
 30
0.0
 10
142.497880
 20
22.107981
 30
0.0
 10
144.596910
 20
22.107981
 30
0.0
 10
144.596910
 20
20.732151
 30
0.0
  0
SPLINE
  5
16f
100
AcDbEntity
  8
Logo
 62
7
100
AcDbSpline
 70
8
 71
3
 72
8
 73
4
 74
0
 40
0
 40
0
 40
0
 40
0
 40
1
 40
1
 40
1
 40
1
 10
147.948310
 20
20.114791
 30
0.0
 10
147.854230
 20
20.126524
 30
0.0
 10
147.766033
 20
20.138291
 30
0.0
 10
147.683720
 20
20.150091
 30
0.0
  0
SPLINE
  5
170
100
AcDbEntity
  8
Logo
 62
7
100
AcDbSpline
 70
8
 71
3
 72
8
 73
4
 74
0
 40
0
 40
0
 40
0
 40
0
 40
1
 40
1
 40
1
 40
1
 10
147.683720
 20
20.150091
 30
0.0
 10
147.601407
 20
20.161824
 30
0.0
 10
147.519093
 20
20.167691
 30
0.0
 10
147.436780
 20
20.167691
 30
0.0
  0
SPLINE
  5
171
100
AcDbEntity
  8
Logo
 62
7
100
AcDbSpline
 70
8
 71
3
 72
8
 73
4
 74
0
 40
0
 40
0
 40
0
 40
0
 40
1
 40
1
 40
1
 40
1
 10
147.436780
 20
20.167691
 30
0.0
 10
146.601867
 20
20.167691
 30
0.0
 10
145.937467
 20
19.920748
 30
0.0
 10
145.443580
 20
19.426861
 30
0.0
  0
SPLINE
  5
172
100
AcDbEntity
  8
Logo
 62
7
100
AcDbSpline
 70
8
 71
3
 72
8
 73
4
 74
0
 40
0
 40
0
 40
0
 40
0
 40
1
 40
1
 40
1
 40
1
 10
145.443580
 20
19.426861
 30
0.0
 10
144.949693
 20
18.944728
 30
0.0
 10
144.702750
 20
18.221531
 30
0.0
 10
144.702750
 20
17.257271
 30
0.0
  0
LWPOLYLINE
  5
173
100
AcDbEntity
  8
Logo
 62
7
100
AcDbPolyline
 90
2
 70
0
 10
147.948310
 20
22.213811
 30
0.0
 10
147.948310
 20
20.114791
 30
0.0
  0
LWPOLYLINE
  5
174
100
AcDbEntity
  8
Logo
 62
7
100
AcDbPolyline
 90
3
 70
0
 10
144.702750
 20
17.257271
 30
0.0
 10
144.702750
 20
12.688801
 30
0.0
 10
142.497880
 20
12.688811
 30
0.0
  0
SPLINE
  5
175
100
AcDbEntity
  8
Logo
 62
7
100
AcDbSpline
 70
8
 71
3
 72
8
 73
4
 74
0
 40
0
 40
0
 40
0
 40
0
 40
1
 40
1
 40
1
 40
1
 10
150.256360
 20
22.637151
 30
0.0
 10
150.256360
 20
23.624931
 30
0.0
 10
150.544460
 20
24.412801
 30
0.0
 10
151.120660
 20
25.000761
 30
0.0
  0
SPLINE
  5
176
100
AcDbEntity
  8
Logo
 62
7
100
AcDbSpline
 70
8
 71
3
 72
8
 73
4
 74
0
 40
0
 40
0
 40
0
 40
0
 40
1
 40
1
 40
1
 40
1
 10
151.120660
 20
25.000761
 30
0.0
 10
151.696867
 20
25.600481
 30
0.0
 10
152.531777
 20
25.900341
 30
0.0
 10
153.625390
 20
25.900341
 30
0.0
  0
SPLINE
  5
177
100
AcDbEntity
  8
Logo
 62
7
100
AcDbSpline
 70
8
 71
3
 72
8
 73
4
 74
0
 40
0
 40
0
 40
0
 40
0
 40
1
 40
1
 40
1
 40
1
 10
153.625390
 20
25.900341
 30
0.0
 10
154.001683
 20
25.900341
 30
0.0
 10
154.366220
 20
25.859184
 30
0.0
 10
154.719000
 20
25.776871
 30
0.0
  0
SPLINE
  5
178
100
AcDbEntity
  8
Logo
 62
7
100
AcDbSpline
 70
8
 71
3
 72
8
 73
4
 74
0
 40
0
 40
0
 40
0
 40
0
 40
1
 40
1
 40
1
 40
1
 10
154.719000
 20
25.776871
 30
0.0
 10
155.071780
 20
25.694558
 30
0.0
 10
155.371640
 20
25.565208
 30
0.0
 10
155.618580
 20
25.388821
 30
0.0
  0
LWPOLYLINE
  5
179
100
AcDbEntity
  8
Logo
 62
7
100
AcDbPolyline
 90
6
 70
0
 10
150.256360
 20
12.688811
 30
0.0
 10
150.256360
 20
20.273541
 30
0.0
 10
148.704130
 20
20.273541
 30
0.0
 10
148.704130
 20
22.037431
 30
0.0
 10
150.256360
 20
22.037431
 30
0.0
 10
150.256360
 20
22.637151
 30
0.0
  0
SPLINE
  5
17a
100
AcDbEntity
  8
Logo
 62
7
100
AcDbSpline
 70
8
 71
3
 72
8
 73
4
 74
0
 40
0
 40
0
 40
0
 40
0
 40
1
 40
1
 40
1
 40
1
 10
155.001220
 20
23.730761
 30
0.0
 10
154.836593
 20
23.848354
 30
0.0
 10
154.648447
 20
23.942428
 30
0.0
 10
154.436780
 20
24.012981
 30
0.0
  0
SPLINE
  5
17b
100
AcDbEntity
  8
Logo
 62
7
100
AcDbSpline
 70
8
 71
3
 72
8
 73
4
 74
0
 40
0
 40
0
 40
0
 40
0
 40
1
 40
1
 40
1
 40
1
 10
154.436780
 20
24.012981
 30
0.0
 10
154.236867
 20
24.083541
 30
0.0
 10
154.019320
 20
24.118821
 30
0.0
 10
153.784140
 20
24.118821
 30
0.0
  0
SPLINE
  5
17c
100
AcDbEntity
  8
Logo
 62
7
100
AcDbSpline
 70
8
 71
3
 72
8
 73
4
 74
0
 40
0
 40
0
 40
0
 40
0
 40
1
 40
1
 40
1
 40
1
 10
153.784140
 20
24.118821
 30
0.0
 10
152.855153
 20
24.118821
 30
0.0
 10
152.390660
 20
23.613171
 30
0.0
 10
152.390660
 20
22.601871
 30
0.0
  0
LWPOLYLINE
  5
17d
100
AcDbEntity
  8
Logo
 62
7
100
AcDbPolyline
 90
2
 70
0
 10
155.618580
 20
25.388821
 30
0.0
 10
155.001220
 20
23.730761
 30
0.0
  0
LWPOLYLINE
  5
17e
100
AcDbEntity
  8
Logo
 62
7
100
AcDbPolyline
 90
7
 70
0
 10
152.390660
 20
22.601871
 30
0.0
 10
152.390660
 20
22.037431
 30
0.0
 10
154.983580
 20
22.037431
 30
0.0
 10
154.983580
 20
20.273541
 30
0.0
 10
152.461220
 20
20.273541
 30
0.0
 10
152.461220
 20
12.688811
 30
0.0
 10
150.256360
 20
12.688811
 30
0.0
  0
SPLINE
  5
17f
100
AcDbEntity
  8
Logo
 62
7
100
AcDbSpline
 70
8
 71
3
 72
8
 73
4
 74
0
 40
0
 40
0
 40
0
 40
0
 40
1
 40
1
 40
1
 40
1
 10
162.142320
 20
13.817701
 30
0.0
 10
161.577873
 20
12.982794
 30
0.0
 10
160.590093
 20
12.565341
 30
0.0
 10
159.178980
 20
12.565341
 30
0.0
  0
SPLINE
  5
180
100
AcDbEntity
  8
Logo
 62
7
100
AcDbSpline
 70
8
 71
3
 72
8
 73
4
 74
0
 40
0
 40
0
 40
0
 40
0
 40
1
 40
1
 40
1
 40
1
 10
159.178980
 20
12.565341
 30
0.0
 10
158.097127
 20
12.565341
 30
0.0
 10
157.238700
 20
12.829924
 30
0.0
 10
156.603700
 20
13.359091
 30
0.0
  0
SPLINE
  5
181
100
AcDbEntity
  8
Logo
 62
7
100
AcDbSpline
 70
8
 71
3
 72
8
 73
4
 74
0
 40
0
 40
0
 40
0
 40
0
 40
1
 40
1
 40
1
 40
1
 10
156.603700
 20
13.359091
 30
0.0
 10
155.980460
 20
13.888258
 30
0.0
 10
155.668840
 20
14.564414
 30
0.0
 10
155.668840
 20
15.387561
 30
0.0
  0
SPLINE
  5
182
100
AcDbEntity
  8
Logo
 62
7
100
AcDbSpline
 70
8
 71
3
 72
8
 73
4
 74
0
 40
0
 40
0
 40
0
 40
0
 40
1
 40
1
 40
1
 40
1
 10
155.668840
 20
15.387561
 30
0.0
 10
155.668840
 20
15.916728
 30
0.0
 10
155.792313
 20
16.392978
 30
0.0
 10
156.039260
 20
16.816311
 30
0.0
  0
SPLINE
  5
183
100
AcDbEntity
  8
Logo
 62
7
100
AcDbSpline
 70
8
 71
3
 72
8
 73
4
 74
0
 40
0
 40
0
 40
0
 40
0
 40
1
 40
1
 40
1
 40
1
 10
156.039260
 20
16.816311
 30
0.0
 10
156.297960
 20
17.239644
 30
0.0
 10
156.715413
 20
17.574784
 30
0.0
 10
157.291620
 20
17.821731
 30
0.0
  0
SPLINE
  5
184
100
AcDbEntity
  8
Logo
 62
7
100
AcDbSpline
 70
8
 71
3
 72
8
 73
4
 74
0
 40
0
 40
0
 40
0
 40
0
 40
1
 40
1
 40
1
 40
1
 10
157.291620
 20
17.821731
 30
0.0
 10
157.867820
 20
18.068678
 30
0.0
 10
158.632170
 20
18.192151
 30
0.0
 10
159.584670
 20
18.192151
 30
0.0
  0
LWPOLYLINE
  5
185
100
AcDbEntity
  8
Logo
 62
7
100
AcDbPolyline
 90
2
 70
0
 10
162.142320
 20
12.688811
 30
0.0
 10
162.142320
 20
13.817701
 30
0.0
  0
SPLINE
  5
186
100
AcDbEntity
  8
Logo
 62
7
100
AcDbSpline
 70
8
 71
3
 72
8
 73
4
 74
0
 40
0
 40
0
 40
0
 40
0
 40
1
 40
1
 40
1
 40
1
 10
162.018840
 20
18.333261
 30
0.0
 10
162.018840
 20
18.980021
 30
0.0
 10
161.824813
 20
19.479788
 30
0.0
 10
161.436760
 20
19.832561
 30
0.0
  0
SPLINE
  5
187
100
AcDbEntity
  8
Logo
 62
7
100
AcDbSpline
 70
8
 71
3
 72
8
 73
4
 74
0
 40
0
 40
0
 40
0
 40
0
 40
1
 40
1
 40
1
 40
1
 10
161.436760
 20
19.832561
 30
0.0
 10
161.048707
 20
20.197101
 30
0.0
 10
160.460743
 20
20.379371
 30
0.0
 10
159.672870
 20
20.379371
 30
0.0
  0
SPLINE
  5
188
100
AcDbEntity
  8
Logo
 62
7
100
AcDbSpline
 70
8
 71
3
 72
8
 73
4
 74
0
 40
0
 40
0
 40
0
 40
0
 40
1
 40
1
 40
1
 40
1
 10
159.672870
 20
20.379371
 30
0.0
 10
159.143703
 20
20.379371
 30
0.0
 10
158.620417
 20
20.297054
 30
0.0
 10
158.103010
 20
20.132421
 30
0.0
  0
SPLINE
  5
189
100
AcDbEntity
  8
Logo
 62
7
100
AcDbSpline
 70
8
 71
3
 72
8
 73
4
 74
0
 40
0
 40
0
 40
0
 40
0
 40
1
 40
1
 40
1
 40
1
 10
158.103010
 20
20.132421
 30
0.0
 10
157.597357
 20
19.967794
 30
0.0
 10
157.168143
 20
19.738491
 30
0.0
 10
156.815370
 20
19.444511
 30
0.0
  0
LWPOLYLINE
  5
18a
100
AcDbEntity
  8
Logo
 62
7
100
AcDbPolyline
 90
3
 70
0
 10
159.584670
 20
18.192151
 30
0.0
 10
162.018840
 20
18.192151
 30
0.0
 10
162.018840
 20
18.333261
 30
0.0
  0
SPLINE
  5
18b
100
AcDbEntity
  8
Logo
 62
7
100
AcDbSpline
 70
8
 71
3
 72
8
 73
4
 74
0
 40
0
 40
0
 40
0
 40
0
 40
1
 40
1
 40
1
 40
1
 10
155.951060
 20
21.049651
 30
0.0
 10
156.456707
 20
21.437704
 30
0.0
 10
157.056430
 20
21.725804
 30
0.0
 10
157.750230
 20
21.913951
 30
0.0
  0
SPLINE
  5
18c
100
AcDbEntity
  8
Logo
 62
7
100
AcDbSpline
 70
8
 71
3
 72
8
 73
4
 74
0
 40
0
 40
0
 40
0
 40
0
 40
1
 40
1
 40
1
 40
1
 10
157.750230
 20
21.913951
 30
0.0
 10
158.455783
 20
22.113858
 30
0.0
 10
159.184857
 20
22.213811
 30
0.0
 10
159.937450
 20
22.213811
 30
0.0
  0
SPLINE
  5
18d
100
AcDbEntity
  8
Logo
 62
7
100
AcDbSpline
 70
8
 71
3
 72
8
 73
4
 74
0
 40
0
 40
0
 40
0
 40
0
 40
1
 40
1
 40
1
 40
1
 10
159.937450
 20
22.213811
 30
0.0
 10
161.301530
 20
22.213811
 30
0.0
 10
162.353987
 20
21.884554
 30
0.0
 10
163.094820
 20
21.226041
 30
0.0
  0
SPLINE
  5
18e
100
AcDbEntity
  8
Logo
 62
7
100
AcDbSpline
 70
8
 71
3
 72
8
 73
4
 74
0
 40
0
 40
0
 40
0
 40
0
 40
1
 40
1
 40
1
 40
1
 10
163.094820
 20
21.226041
 30
0.0
 10
163.847413
 20
20.579281
 30
0.0
 10
164.223710
 20
19.573861
 30
0.0
 10
164.223710
 20
18.209781
 30
0.0
  0
LWPOLYLINE
  5
18f
100
AcDbEntity
  8
Logo
 62
7
100
AcDbPolyline
 90
2
 70
0
 10
156.815370
 20
19.444511
 30
0.0
 10
155.951060
 20
21.049651
 30
0.0
  0
LWPOLYLINE
  5
190
100
AcDbEntity
  8
Logo
 62
7
100
AcDbPolyline
 90
3
 70
0
 10
164.223710
 20
18.209781
 30
0.0
 10
164.223710
 20
12.688811
 30
0.0
 10
162.142320
 20
12.688811
 30
0.0
  0
SPLINE
  5
191
100
AcDbEntity
  8
Logo
 62
7
100
AcDbSpline
 70
8
 71
3
 72
8
 73
4
 74
0
 40
0
 40
0
 40
0
 40
0
 40
1
 40
1
 40
1
 40
1
 10
159.743420
 20
16.728121
 30
0.0
 10
158.990833
 20
16.728121
 30
0.0
 10
158.485187
 20
16.604648
 30
0.0
 10
158.226480
 20
16.357701
 30
0.0
  0
SPLINE
  5
192
100
AcDbEntity
  8
Logo
 62
7
100
AcDbSpline
 70
8
 71
3
 72
8
 73
4
 74
0
 40
0
 40
0
 40
0
 40
0
 40
1
 40
1
 40
1
 40
1
 10
158.226480
 20
16.357701
 30
0.0
 10
157.967773
 20
16.110754
 30
0.0
 10
157.838420
 20
15.816771
 30
0.0
 10
157.838420
 20
15.475751
 30
0.0
  0
SPLINE
  5
193
100
AcDbEntity
  8
Logo
 62
7
100
AcDbSpline
 70
8
 71
3
 72
8
 73
4
 74
0
 40
0
 40
0
 40
0
 40
0
 40
1
 40
1
 40
1
 40
1
 10
157.838420
 20
15.475751
 30
0.0
 10
157.838420
 20
15.075938
 30
0.0
 10
157.997170
 20
14.758438
 30
0.0
 10
158.314670
 20
14.523251
 30
0.0
  0
SPLINE
  5
194
100
AcDbEntity
  8
Logo
 62
7
100
AcDbSpline
 70
8
 71
3
 72
8
 73
4
 74
0
 40
0
 40
0
 40
0
 40
0
 40
1
 40
1
 40
1
 40
1
 10
158.314670
 20
14.523251
 30
0.0
 10
158.632170
 20
14.288071
 30
0.0
 10
159.073143
 20
14.170481
 30
0.0
 10
159.637590
 20
14.170481
 30
0.0
  0
SPLINE
  5
195
100
AcDbEntity
  8
Logo
 62
7
100
AcDbSpline
 70
8
 71
3
 72
8
 73
4
 74
0
 40
0
 40
0
 40
0
 40
0
 40
1
 40
1
 40
1
 40
1
 10
159.637590
 20
14.170481
 30
0.0
 10
160.178517
 20
14.170481
 30
0.0
 10
160.660647
 20
14.293951
 30
0.0
 10
161.083980
 20
14.540891
 30
0.0
  0
SPLINE
  5
196
100
AcDbEntity
  8
Logo
 62
7
100
AcDbSpline
 70
8
 71
3
 72
8
 73
4
 74
0
 40
0
 40
0
 40
0
 40
0
 40
1
 40
1
 40
1
 40
1
 10
161.083980
 20
14.540891
 30
0.0
 10
161.519073
 20
14.787838
 30
0.0
 10
161.830693
 20
15.152374
 30
0.0
 10
162.018840
 20
15.634501
 30
0.0
  0
LWPOLYLINE
  5
197
100
AcDbEntity
  8
Logo
 62
7
100
AcDbPolyline
 90
3
 70
0
 10
162.018840
 20
15.634501
 30
0.0
 10
162.018840
 20
16.728121
 30
0.0
 10
159.743420
 20
16.728121
 30
0.0
  0
SPLINE
  5
198
100
AcDbEntity
  8
Logo
 62
7
100
AcDbSpline
 70
8
 71
3
 72
8
 73
4
 74
0
 40
0
 40
0
 40
0
 40
0
 40
1
 40
1
 40
1
 40
1
 10
171.435370
 20
12.565341
 30
0.0
 10
170.447590
 20
12.565341
 30
0.0
 10
169.565643
 20
12.771128
 30
0.0
 10
168.789530
 20
13.182701
 30
0.0
  0
SPLINE
  5
199
100
AcDbEntity
  8
Logo
 62
7
100
AcDbSpline
 70
8
 71
3
 72
8
 73
4
 74
0
 40
0
 40
0
 40
0
 40
0
 40
1
 40
1
 40
1
 40
1
 10
168.789530
 20
13.182701
 30
0.0
 10
168.025177
 20
13.606034
 30
0.0
 10
167.425453
 20
14.176358
 30
0.0
 10
166.990360
 20
14.893671
 30
0.0
  0
SPLINE
  5
19a
100
AcDbEntity
  8
Logo
 62
7
100
AcDbSpline
 70
8
 71
3
 72
8
 73
4
 74
0
 40
0
 40
0
 40
0
 40
0
 40
1
 40
1
 40
1
 40
1
 10
166.990360
 20
14.893671
 30
0.0
 10
166.555267
 20
15.622744
 30
0.0
 10
166.337720
 20
16.457651
 30
0.0
 10
166.337720
 20
17.398391
 30
0.0
  0
SPLINE
  5
19b
100
AcDbEntity
  8
Logo
 62
7
100
AcDbSpline
 70
8
 71
3
 72
8
 73
4
 74
0
 40
0
 40
0
 40
0
 40
0
 40
1
 40
1
 40
1
 40
1
 10
166.337720
 20
17.398391
 30
0.0
 10
166.337720
 20
18.339138
 30
0.0
 10
166.555267
 20
19.168168
 30
0.0
 10
166.990360
 20
19.885481
 30
0.0
  0
SPLINE
  5
19c
100
AcDbEntity
  8
Logo
 62
7
100
AcDbSpline
 70
8
 71
3
 72
8
 73
4
 74
0
 40
0
 40
0
 40
0
 40
0
 40
1
 40
1
 40
1
 40
1
 10
166.990360
 20
19.885481
 30
0.0
 10
167.425453
 20
20.614554
 30
0.0
 10
168.025177
 20
21.184878
 30
0.0
 10
168.789530
 20
21.596451
 30
0.0
  0
SPLINE
  5
19d
100
AcDbEntity
  8
Logo
 62
7
100
AcDbSpline
 70
8
 71
3
 72
8
 73
4
 74
0
 40
0
 40
0
 40
0
 40
0
 40
1
 40
1
 40
1
 40
1
 10
168.789530
 20
21.596451
 30
0.0
 10
169.565643
 20
22.008024
 30
0.0
 10
170.447590
 20
22.213811
 30
0.0
 10
171.435370
 20
22.213811
 30
0.0
  0
SPLINE
  5
19e
100
AcDbEntity
  8
Logo
 62
7
100
AcDbSpline
 70
8
 71
3
 72
8
 73
4
 74
0
 40
0
 40
0
 40
0
 40
0
 40
1
 40
1
 40
1
 40
1
 10
171.435370
 20
22.213811
 30
0.0
 10
172.352590
 20
22.213811
 30
0.0
 10
173.158100
 20
22.025664
 30
0.0
 10
173.851900
 20
21.649371
 30
0.0
  0
SPLINE
  5
19f
100
AcDbEntity
  8
Logo
 62
7
100
AcDbSpline
 70
8
 71
3
 72
8
 73
4
 74
0
 40
0
 40
0
 40
0
 40
0
 40
1
 40
1
 40
1
 40
1
 10
173.851900
 20
21.649371
 30
0.0
 10
174.557453
 20
21.284831
 30
0.0
 10
175.092500
 20
20.743904
 30
0.0
 10
175.457040
 20
20.026591
 30
0.0
  0
LWPOLYLINE
  5
1a0
100
AcDbEntity
  8
Logo
 62
7
100
AcDbPolyline
 90
1
 70
1
 10
162.018840
 20
15.634501
 30
0.0
  0
SPLINE
  5
1a1
100
AcDbEntity
  8
Logo
 62
7
100
AcDbSpline
 70
8
 71
3
 72
8
 73
4
 74
0
 40
0
 40
0
 40
0
 40
0
 40
1
 40
1
 40
1
 40
1
 10
173.763700
 20
19.038811
 30
0.0
 10
173.481480
 20
19.485664
 30
0.0
 10
173.134583
 20
19.814924
 30
0.0
 10
172.723010
 20
20.026591
 30
0.0
  0
SPLINE
  5
1a2
100
AcDbEntity
  8
Logo
 62
7
100
AcDbSpline
 70
8
 71
3
 72
8
 73
4
 74
0
 40
0
 40
0
 40
0
 40
0
 40
1
 40
1
 40
1
 40
1
 10
172.723010
 20
20.026591
 30
0.0
 10
172.323190
 20
20.238258
 30
0.0
 10
171.888097
 20
20.344091
 30
0.0
 10
171.417730
 20
20.344091
 30
0.0
  0
SPLINE
  5
1a3
100
AcDbEntity
  8
Logo
 62
7
100
AcDbSpline
 70
8
 71
3
 72
8
 73
4
 74
0
 40
0
 40
0
 40
0
 40
0
 40
1
 40
1
 40
1
 40
1
 10
171.417730
 20
20.344091
 30
0.0
 10
170.606337
 20
20.344091
 30
0.0
 10
169.924300
 20
20.079508
 30
0.0
 10
169.371620
 20
19.550341
 30
0.0
  0
SPLINE
  5
1a4
100
AcDbEntity
  8
Logo
 62
7
100
AcDbSpline
 70
8
 71
3
 72
8
 73
4
 74
0
 40
0
 40
0
 40
0
 40
0
 40
1
 40
1
 40
1
 40
1
 10
169.371620
 20
19.550341
 30
0.0
 10
168.830693
 20
19.021174
 30
0.0
 10
168.560230
 20
18.303858
 30
0.0
 10
168.560230
 20
17.398391
 30
0.0
  0
SPLINE
  5
1a5
100
AcDbEntity
  8
Logo
 62
7
100
AcDbSpline
 70
8
 71
3
 72
8
 73
4
 74
0
 40
0
 40
0
 40
0
 40
0
 40
1
 40
1
 40
1
 40
1
 10
168.560230
 20
17.398391
 30
0.0
 10
168.560230
 20
16.481171
 30
0.0
 10
168.830693
 20
15.757978
 30
0.0
 10
169.371620
 20
15.228811
 30
0.0
  0
SPLINE
  5
1a6
100
AcDbEntity
  8
Logo
 62
7
100
AcDbSpline
 70
8
 71
3
 72
8
 73
4
 74
0
 40
0
 40
0
 40
0
 40
0
 40
1
 40
1
 40
1
 40
1
 10
169.371620
 20
15.228811
 30
0.0
 10
169.924300
 20
14.711404
 30
0.0
 10
170.606337
 20
14.452701
 30
0.0
 10
171.417730
 20
14.452701
 30
0.0
  0
SPLINE
  5
1a7
100
AcDbEntity
  8
Logo
 62
7
100
AcDbSpline
 70
8
 71
3
 72
8
 73
4
 74
0
 40
0
 40
0
 40
0
 40
0
 40
1
 40
1
 40
1
 40
1
 10
171.417730
 20
14.452701
 30
0.0
 10
171.888097
 20
14.452701
 30
0.0
 10
172.323190
 20
14.558534
 30
0.0
 10
172.723010
 20
14.770201
 30
0.0
  0
SPLINE
  5
1a8
100
AcDbEntity
  8
Logo
 62
7
100
AcDbSpline
 70
8
 71
3
 72
8
 73
4
 74
0
 40
0
 40
0
 40
0
 40
0
 40
1
 40
1
 40
1
 40
1
 10
172.723010
 20
14.770201
 30
0.0
 10
173.134583
 20
14.981868
 30
0.0
 10
173.481480
 20
15.311128
 30
0.0
 10
173.763700
 20
15.757981
 30
0.0
  0
LWPOLYLINE
  5
1a9
100
AcDbEntity
  8
Logo
 62
7
100
AcDbPolyline
 90
2
 70
0
 10
175.457040
 20
20.026591
 30
0.0
 10
173.763700
 20
19.038811
 30
0.0
  0
SPLINE
  5
1aa
100
AcDbEntity
  8
Logo
 62
7
100
AcDbSpline
 70
8
 71
3
 72
8
 73
4
 74
0
 40
0
 40
0
 40
0
 40
0
 40
1
 40
1
 40
1
 40
1
 10
175.457040
 20
14.770201
 30
0.0
 10
175.092500
 20
14.064641
 30
0.0
 10
174.557453
 20
13.517834
 30
0.0
 10
173.851900
 20
13.129781
 30
0.0
  0
SPLINE
  5
1ab
100
AcDbEntity
  8
Logo
 62
7
100
AcDbSpline
 70
8
 71
3
 72
8
 73
4
 74
0
 40
0
 40
0
 40
0
 40
0
 40
1
 40
1
 40
1
 40
1
 10
173.851900
 20
13.129781
 30
0.0
 10
173.158100
 20
12.753488
 30
0.0
 10
172.352590
 20
12.565341
 30
0.0
 10
171.435370
 20
12.565341
 30
0.0
  0
LWPOLYLINE
  5
1ac
100
AcDbEntity
  8
Logo
 62
7
100
AcDbPolyline
 90
2
 70
0
 10
173.763700
 20
15.757981
 30
0.0
 10
175.457040
 20
14.770201
 30
0.0
  0
SPLINE
  5
1ad
100
AcDbEntity
  8
Logo
 62
7
100
AcDbSpline
 70
8
 71
3
 72
8
 73
4
 74
0
 40
0
 40
0
 40
0
 40
0
 40
1
 40
1
 40
1
 40
1
 10
181.698560
 20
12.565341
 30
0.0
 10
180.651987
 20
12.565341
 30
0.0
 10
179.734767
 20
12.771128
 30
0.0
 10
178.946900
 20
13.182701
 30
0.0
  0
SPLINE
  5
1ae
100
AcDbEntity
  8
Logo
 62
7
100
AcDbSpline
 70
8
 71
3
 72
8
 73
4
 74
0
 40
0
 40
0
 40
0
 40
0
 40
1
 40
1
 40
1
 40
1
 10
178.946900
 20
13.182701
 30
0.0
 10
178.170787
 20
13.606034
 30
0.0
 10
177.565183
 20
14.176358
 30
0.0
 10
177.130090
 20
14.893671
 30
0.0
  0
SPLINE
  5
1af
100
AcDbEntity
  8
Logo
 62
7
100
AcDbSpline
 70
8
 71
3
 72
8
 73
4
 74
0
 40
0
 40
0
 40
0
 40
0
 40
1
 40
1
 40
1
 40
1
 10
177.130090
 20
14.893671
 30
0.0
 10
176.706757
 20
15.622744
 30
0.0
 10
176.495090
 20
16.457651
 30
0.0
 10
176.495090
 20
17.398391
 30
0.0
  0
SPLINE
  5
1b0
100
AcDbEntity
  8
Logo
 62
7
100
AcDbSpline
 70
8
 71
3
 72
8
 73
4
 74
0
 40
0
 40
0
 40
0
 40
0
 40
1
 40
1
 40
1
 40
1
 10
176.495090
 20
17.398391
 30
0.0
 10
176.495090
 20
18.339138
 30
0.0
 10
176.700877
 20
19.168168
 30
0.0
 10
177.112450
 20
19.885481
 30
0.0
  0
SPLINE
  5
1b1
100
AcDbEntity
  8
Logo
 62
7
100
AcDbSpline
 70
8
 71
3
 72
8
 73
4
 74
0
 40
0
 40
0
 40
0
 40
0
 40
1
 40
1
 40
1
 40
1
 10
177.112450
 20
19.885481
 30
0.0
 10
177.535783
 20
20.614554
 30
0.0
 10
178.111987
 20
21.184878
 30
0.0
 10
178.841060
 20
21.596451
 30
0.0
  0
SPLINE
  5
1b2
100
AcDbEntity
  8
Logo
 62
7
100
AcDbSpline
 70
8
 71
3
 72
8
 73
4
 74
0
 40
0
 40
0
 40
0
 40
0
 40
1
 40
1
 40
1
 40
1
 10
178.841060
 20
21.596451
 30
0.0
 10
179.581893
 20
22.008024
 30
0.0
 10
180.422683
 20
22.213811
 30
0.0
 10
181.363430
 20
22.213811
 30
0.0
  0
SPLINE
  5
1b3
100
AcDbEntity
  8
Logo
 62
7
100
AcDbSpline
 70
8
 71
3
 72
8
 73
4
 74
0
 40
0
 40
0
 40
0
 40
0
 40
1
 40
1
 40
1
 40
1
 10
181.363430
 20
22.213811
 30
0.0
 10
182.280650
 20
22.213811
 30
0.0
 10
183.097917
 20
22.013904
 30
0.0
 10
183.815230
 20
21.614091
 30
0.0
  0
SPLINE
  5
1b4
100
AcDbEntity
  8
Logo
 62
7
100
AcDbSpline
 70
8
 71
3
 72
8
 73
4
 74
0
 40
0
 40
0
 40
0
 40
0
 40
1
 40
1
 40
1
 40
1
 10
183.815230
 20
21.614091
 30
0.0
 10
184.532550
 20
21.214278
 30
0.0
 10
185.096997
 20
20.643954
 30
0.0
 10
185.508570
 20
19.903121
 30
0.0
  0
SPLINE
  5
1b5
100
AcDbEntity
  8
Logo
 62
7
100
AcDbSpline
 70
8
 71
3
 72
8
 73
4
 74
0
 40
0
 40
0
 40
0
 40
0
 40
1
 40
1
 40
1
 40
1
 10
185.508570
 20
19.903121
 30
0.0
 10
185.920143
 20
19.174048
 30
0.0
 10
186.125930
 20
18.321501
 30
0.0
 10
186.125930
 20
17.345481
 30
0.0
  0
SPLINE
  5
1b6
100
AcDbEntity
  8
Logo
 62
7
100
AcDbSpline
 70
8
 71
3
 72
8
 73
4
 74
0
 40
0
 40
0
 40
0
 40
0
 40
1
 40
1
 40
1
 40
1
 10
186.125930
 20
17.345481
 30
0.0
 10
186.125930
 20
17.251408
 30
0.0
 10
186.120063
 20
17.145574
 30
0.0
 10
186.108330
 20
17.027981
 30
0.0
  0
SPLINE
  5
1b7
100
AcDbEntity
  8
Logo
 62
7
100
AcDbSpline
 70
8
 71
3
 72
8
 73
4
 74
0
 40
0
 40
0
 40
0
 40
0
 40
1
 40
1
 40
1
 40
1
 10
186.108330
 20
17.027981
 30
0.0
 10
186.108330
 20
16.910388
 30
0.0
 10
186.102463
 20
16.798674
 30
0.0
 10
186.090730
 20
16.692841
 30
0.0
  0
LWPOLYLINE
  5
1b8
100
AcDbEntity
  8
Logo
 62
7
100
AcDbPolyline
 90
1
 70
1
 10
171.435370
 20
12.565341
 30
0.0
  0
SPLINE
  5
1b9
100
AcDbEntity
  8
Logo
 62
7
100
AcDbSpline
 70
8
 71
3
 72
8
 73
4
 74
0
 40
0
 40
0
 40
0
 40
0
 40
1
 40
1
 40
1
 40
1
 10
178.700030
 20
16.692841
 30
0.0
 10
178.829383
 20
16.010801
 30
0.0
 10
179.164523
 20
15.463994
 30
0.0
 10
179.705450
 20
15.052421
 30
0.0
  0
SPLINE
  5
1ba
100
AcDbEntity
  8
Logo
 62
7
100
AcDbSpline
 70
8
 71
3
 72
8
 73
4
 74
0
 40
0
 40
0
 40
0
 40
0
 40
1
 40
1
 40
1
 40
1
 10
179.705450
 20
15.052421
 30
0.0
 10
180.246377
 20
14.640848
 30
0.0
 10
180.928413
 20
14.435061
 30
0.0
 10
181.751560
 20
14.435061
 30
0.0
  0
SPLINE
  5
1bb
100
AcDbEntity
  8
Logo
 62
7
100
AcDbSpline
 70
8
 71
3
 72
8
 73
4
 74
0
 40
0
 40
0
 40
0
 40
0
 40
1
 40
1
 40
1
 40
1
 10
181.751560
 20
14.435061
 30
0.0
 10
182.798133
 20
14.435061
 30
0.0
 10
183.650680
 20
14.776081
 30
0.0
 10
184.309200
 20
15.458121
 30
0.0
  0
LWPOLYLINE
  5
1bc
100
AcDbEntity
  8
Logo
 62
7
100
AcDbPolyline
 90
2
 70
0
 10
186.090730
 20
16.692841
 30
0.0
 10
178.700030
 20
16.692841
 30
0.0
  0
SPLINE
  5
1bd
100
AcDbEntity
  8
Logo
 62
7
100
AcDbSpline
 70
8
 71
3
 72
8
 73
4
 74
0
 40
0
 40
0
 40
0
 40
0
 40
1
 40
1
 40
1
 40
1
 10
185.491010
 20
14.099921
 30
0.0
 10
184.620823
 20
13.076868
 30
0.0
 10
183.356700
 20
12.565341
 30
0.0
 10
181.698640
 20
12.565341
 30
0.0
  0
LWPOLYLINE
  5
1be
100
AcDbEntity
  8
Logo
 62
7
100
AcDbPolyline
 90
2
 70
0
 10
184.309200
 20
15.458121
 30
0.0
 10
185.491010
 20
14.099921
 30
0.0
  0
LWPOLYLINE
  5
1bf
100
AcDbEntity
  8
Logo
 62
7
100
AcDbPolyline
 90
1
 70
1
 10
181.698640
 20
12.565341
 30
0.0
  0
SPLINE
  5
1c0
100
AcDbEntity
  8
Logo
 62
7
100
AcDbSpline
 70
8
 71
3
 72
8
 73
4
 74
0
 40
0
 40
0
 40
0
 40
0
 40
1
 40
1
 40
1
 40
1
 10
184.026900
 20
18.156871
 30
0.0
 10
183.932827
 20
18.838904
 30
0.0
 10
183.644723
 20
19.391588
 30
0.0
 10
183.162590
 20
19.814921
 30
0.0
  0
SPLINE
  5
1c1
100
AcDbEntity
  8
Logo
 62
7
100
AcDbSpline
 70
8
 71
3
 72
8
 73
4
 74
0
 40
0
 40
0
 40
0
 40
0
 40
1
 40
1
 40
1
 40
1
 10
183.162590
 20
19.814921
 30
0.0
 10
182.680463
 20
20.238254
 30
0.0
 10
182.080743
 20
20.449921
 30
0.0
 10
181.363430
 20
20.449921
 30
0.0
  0
SPLINE
  5
1c2
100
AcDbEntity
  8
Logo
 62
7
100
AcDbSpline
 70
8
 71
3
 72
8
 73
4
 74
0
 40
0
 40
0
 40
0
 40
0
 40
1
 40
1
 40
1
 40
1
 10
181.363430
 20
20.449921
 30
0.0
 10
180.646110
 20
20.449921
 30
0.0
 10
180.046387
 20
20.238254
 30
0.0
 10
179.564260
 20
19.814921
 30
0.0
  0
SPLINE
  5
1c3
100
AcDbEntity
  8
Logo
 62
7
100
AcDbSpline
 70
8
 71
3
 72
8
 73
4
 74
0
 40
0
 40
0
 40
0
 40
0
 40
1
 40
1
 40
1
 40
1
 10
179.564260
 20
19.814921
 30
0.0
 10
179.082127
 20
19.403348
 30
0.0
 10
178.788143
 20
18.850664
 30
0.0
 10
178.682310
 20
18.156871
 30
0.0
  0
LWPOLYLINE
  5
1c4
100
AcDbEntity
  8
Logo
 62
7
100
AcDbPolyline
 90
2
 70
0
 10
178.682310
 20
18.156871
 30
0.0
 10
184.026900
 20
18.156871
 30
0.0
  0
SPLINE
  5
1c5
100
AcDbEntity
  8
Logo
 62
7
100
AcDbSpline
 70
8
 71
3
 72
8
 73
4
 74
0
 40
0
 40
0
 40
0
 40
0
 40
1
 40
1
 40
1
 40
1
 10
19.821529
 20
34.914145
 30
0.0
 10
19.464224
 20
34.889518
 30
0.0
 10
19.116341
 20
34.790880
 30
0.0
 10
18.800920
 20
34.624764
 30
0.0
  0
LWPOLYLINE
  5
1c6
100
AcDbEntity
  8
Logo
 62
7
100
AcDbPolyline
 90
1
 70
1
 10
178.682310
 20
18.156871
 30
0.0
  0
SPLINE
  5
1c7
100
AcDbEntity
  8
Logo
 62
7
100
AcDbSpline
 70
8
 71
3
 72
8
 73
4
 74
0
 40
0
 40
0
 40
0
 40
0
 40
1
 40
1
 40
1
 40
1
 10
9.048027
 20
29.482438
 30
0.0
 10
7.170713
 20
28.492479
 30
0.0
 10
6.000153
 20
26.573895
 30
0.0
 10
6.000151
 20
24.486876
 30
0.0
  0
LWPOLYLINE
  5
1c8
100
AcDbEntity
  8
Logo
 62
7
100
AcDbPolyline
 90
2
 70
0
 10
18.800920
 20
34.624764
 30
0.0
 10
9.048027
 20
29.482438
 30
0.0
  0
SPLINE
  5
1c9
100
AcDbEntity
  8
Logo
 62
7
100
AcDbSpline
 70
8
 71
3
 72
8
 73
4
 74
0
 40
0
 40
0
 40
0
 40
0
 40
1
 40
1
 40
1
 40
1
 10
6.000151
 20
14.384653
 30
0.0
 10
5.999958
 20
12.297448
 30
0.0
 10
7.170546
 20
10.378621
 30
0.0
 10
9.048027
 20
9.388574
 30
0.0
  0
LWPOLYLINE
  5
1ca
100
AcDbEntity
  8
Logo
 62
7
100
AcDbPolyline
 90
2
 70
0
 10
6.000151
 20
24.486876
 30
0.0
 10
6.000151
 20
14.384653
 30
0.0
  0
SPLINE
  5
1cb
100
AcDbEntity
  8
Logo
 62
7
100
AcDbSpline
 70
8
 71
3
 72
8
 73
4
 74
0
 40
0
 40
0
 40
0
 40
0
 40
1
 40
1
 40
1
 40
1
 10
18.800920
 20
4.246774
 30
0.0
 10
19.549510
 20
3.852151
 30
0.0
 10
20.450632
 20
3.852151
 30
0.0
 10
21.199223
 20
4.246774
 30
0.0
  0
LWPOLYLINE
  5
1cc
100
AcDbEntity
  8
Logo
 62
7
100
AcDbPolyline
 90
2
 70
0
 10
9.048027
 20
9.388574
 30
0.0
 10
18.800920
 20
4.246774
 30
0.0
  0
SPLINE
  5
1cd
100
AcDbEntity
  8
Logo
 62
7
100
AcDbSpline
 70
8
 71
3
 72
8
 73
4
 74
0
 40
0
 40
0
 40
0
 40
0
 40
1
 40
1
 40
1
 40
1
 10
30.951599
 20
9.388574
 30
0.0
 10
32.829280
 20
10.378486
 30
0.0
 10
34.000082
 20
12.297340
 30
0.0
 10
33.999992
 20
14.384653
 30
0.0
  0
LWPOLYLINE
  5
1ce
100
AcDbEntity
  8
Logo
 62
7
100
AcDbPolyline
 90
2
 70
0
 10
21.199223
 20
4.246774
 30
0.0
 10
30.951599
 20
9.388574
 30
0.0
  0
SPLINE
  5
1cf
100
AcDbEntity
  8
Logo
 62
7
100
AcDbSpline
 70
8
 71
3
 72
8
 73
4
 74
0
 40
0
 40
0
 40
0
 40
0
 40
1
 40
1
 40
1
 40
1
 10
33.999992
 20
24.486876
 30
0.0
 10
33.999888
 20
26.574003
 30
0.0
 10
32.829113
 20
28.492614
 30
0.0
 10
30.951599
 20
29.482438
 30
0.0
  0
LWPOLYLINE
  5
1d0
100
AcDbEntity
  8
Logo
 62
7
100
AcDbPolyline
 90
2
 70
0
 10
33.999992
 20
14.384653
 30
0.0
 10
33.999992
 20
24.486876
 30
0.0
  0
SPLINE
  5
1d1
100
AcDbEntity
  8
Logo
 62
7
100
AcDbSpline
 70
8
 71
3
 72
8
 73
4
 74
0
 40
0
 40
0
 40
0
 40
0
 40
1
 40
1
 40
1
 40
1
 10
21.199223
 20
34.624764
 30
0.0
 10
20.777283
 20
34.847028
 30
0.0
 10
20.299500
 20
34.947385
 30
0.0
 10
19.821529
 20
34.914145
 30
0.0
  0
LWPOLYLINE
  5
1d2
100
AcDbEntity
  8
Logo
 62
7
100
AcDbPolyline
 90
2
 70
0
 10
30.951599
 20
29.482438
 30
0.0
 10
21.199223
 20
34.624764
 30
0.0
  0
SPLINE
  5
1d3
100
AcDbEntity
  8
Logo
 62
7
100
AcDbSpline
 70
8
 71
3
 72
8
 73
4
 74
0
 40
0
 40
0
 40
0
 40
0
 40
1
 40
1
 40
1
 40
1
 10
19.830879
 20
29.698964
 30
0.0
 10
20.284496
 20
29.730406
 30
0.0
 10
20.737905
 20
29.635064
 30
0.0
 10
21.138293
 20
29.424045
 30
0.0
  0
LWPOLYLINE
  5
1d4
100
AcDbEntity
  8
Logo
 62
7
100
AcDbPolyline
 90
1
 70
1
 10
19.821529
 20
34.914145
 30
0.0
  0
SPLINE
  5
1d5
100
AcDbEntity
  8
Logo
 62
7
100
AcDbSpline
 70
8
 71
3
 72
8
 73
4
 74
0
 40
0
 40
0
 40
0
 40
0
 40
1
 40
1
 40
1
 40
1
 10
28.231400
 20
25.684223
 30
0.0
 10
28.932581
 20
25.314631
 30
0.0
 10
29.369824
 20
24.598130
 30
0.0
 10
29.369832
 20
23.818699
 30
0.0
  0
LWPOLYLINE
  5
1d6
100
AcDbEntity
  8
Logo
 62
7
100
AcDbPolyline
 90
2
 70
0
 10
21.138293
 20
29.424045
 30
0.0
 10
28.231400
 20
25.684223
 30
0.0
  0
SPLINE
  5
1d7
100
AcDbEntity
  8
Logo
 62
7
100
AcDbSpline
 70
8
 71
3
 72
8
 73
4
 74
0
 40
0
 40
0
 40
0
 40
0
 40
1
 40
1
 40
1
 40
1
 10
29.369832
 20
15.052830
 30
0.0
 10
29.369824
 20
14.273399
 30
0.0
 10
28.932581
 20
13.556898
 30
0.0
 10
28.231400
 20
13.187306
 30
0.0
  0
LWPOLYLINE
  5
1d8
100
AcDbEntity
  8
Logo
 62
7
100
AcDbPolyline
 90
2
 70
0
 10
29.369832
 20
23.818699
 30
0.0
 10
29.369832
 20
15.052830
 30
0.0
  0
SPLINE
  5
1d9
100
AcDbEntity
  8
Logo
 62
7
100
AcDbSpline
 70
8
 71
3
 72
8
 73
4
 74
0
 40
0
 40
0
 40
0
 40
0
 40
1
 40
1
 40
1
 40
1
 10
21.138293
 20
9.447484
 30
0.0
 10
20.427779
 20
9.072889
 30
0.0
 10
19.572459
 20
9.072889
 30
0.0
 10
18.861946
 20
9.447484
 30
0.0
  0
LWPOLYLINE
  5
1da
100
AcDbEntity
  8
Logo
 62
7
100
AcDbPolyline
 90
2
 70
0
 10
28.231400
 20
13.187306
 30
0.0
 10
21.138293
 20
9.447484
 30
0.0
  0
SPLINE
  5
1db
100
AcDbEntity
  8
Logo
 62
7
100
AcDbSpline
 70
8
 71
3
 72
8
 73
4
 74
0
 40
0
 40
0
 40
0
 40
0
 40
1
 40
1
 40
1
 40
1
 10
11.768839
 20
13.187306
 30
0.0
 10
11.067658
 20
13.556898
 30
0.0
 10
10.630415
 20
14.273399
 30
0.0
 10
10.630407
 20
15.052830
 30
0.0
  0
LWPOLYLINE
  5
1dc
100
AcDbEntity
  8
Logo
 62
7
100
AcDbPolyline
 90
2
 70
0
 10
18.861946
 20
9.447484
 30
0.0
 10
11.768839
 20
13.187306
 30
0.0
  0
SPLINE
  5
1dd
100
AcDbEntity
  8
Logo
 62
7
100
AcDbSpline
 70
8
 71
3
 72
8
 73
4
 74
0
 40
0
 40
0
 40
0
 40
0
 40
1
 40
1
 40
1
 40
1
 10
10.630407
 20
23.818699
 30
0.0
 10
10.630415
 20
24.598130
 30
0.0
 10
11.067658
 20
25.314631
 30
0.0
 10
11.768839
 20
25.684223
 30
0.0
  0
LWPOLYLINE
  5
1de
100
AcDbEntity
  8
Logo
 62
7
100
AcDbPolyline
 90
2
 70
0
 10
10.630407
 20
15.052830
 30
0.0
 10
10.630407
 20
23.818699
 30
0.0
  0
SPLINE
  5
1df
100
AcDbEntity
  8
Logo
 62
7
100
AcDbSpline
 70
8
 71
3
 72
8
 73
4
 74
0
 40
0
 40
0
 40
0
 40
0
 40
1
 40
1
 40
1
 40
1
 10
18.861946
 20
29.424045
 30
0.0
 10
19.161372
 20
29.581837
 30
0.0
 10
19.491646
 20
29.675547
 30
0.0
 10
19.830879
 20
29.698964
 30
0.0
  0
LWPOLYLINE
  5
1e0
100
AcDbEntity
  8
Logo
 62
7
100
AcDbPolyline
 90
2
 70
0
 10
11.768839
 20
25.684223
 30
0.0
 10
18.861946
 20
29.424045
 30
0.0
  0
SPLINE
  5
1e1
100
AcDbEntity
  8
Logo
 62
7
100
AcDbSpline
 70
8
 71
3
 72
8
 73
4
 74
0
 40
0
 40
0
 40
0
 40
0
 40
1
 40
1
 40
1
 40
1
 10
19.999813
 20
27.185939
 30
0.0
 10
19.309813
 20
27.185939
 30
0.0
 10
18.749760
 20
26.625886
 30
0.0
 10
18.749760
 20
25.935886
 30
0.0
  0
SPLINE
  5
1e2
100
AcDbEntity
  8
Logo
 62
7
100
AcDbSpline
 70
8
 71
3
 72
8
 73
4
 74
0
 40
0
 40
0
 40
0
 40
0
 40
1
 40
1
 40
1
 40
1
 10
18.749760
 20
25.935886
 30
0.0
 10
18.749760
 20
25.423633
 30
0.0
 10
19.058755
 20
24.982712
 30
0.0
 10
19.500102
 20
24.789703
 30
0.0
  0
LWPOLYLINE
  5
1e3
100
AcDbEntity
  8
Logo
 62
7
100
AcDbPolyline
 90
1
 70
1
 10
19.830879
 20
29.698964
 30
0.0
  0
SPLINE
  5
1e4
100
AcDbEntity
  8
Logo
 62
7
100
AcDbSpline
 70
8
 71
3
 72
8
 73
4
 74
0
 40
0
 40
0
 40
0
 40
0
 40
1
 40
1
 40
1
 40
1
 10
15.613517
 20
22.546946
 30
0.0
 10
15.666646
 20
23.025373
 30
0.0
 10
15.439325
 20
23.512097
 30
0.0
 10
14.995984
 20
23.768060
 30
0.0
  0
SPLINE
  5
1e5
100
AcDbEntity
  8
Logo
 62
7
100
AcDbSpline
 70
8
 71
3
 72
8
 73
4
 74
0
 40
0
 40
0
 40
0
 40
0
 40
1
 40
1
 40
1
 40
1
 10
14.995984
 20
23.768060
 30
0.0
 10
14.813307
 20
23.873529
 30
0.0
 10
14.611825
 20
23.926776
 30
0.0
 10
14.410490
 20
23.931874
 30
0.0
  0
SPLINE
  5
1e6
100
AcDbEntity
  8
Logo
 62
7
100
AcDbSpline
 70
8
 71
3
 72
8
 73
4
 74
0
 40
0
 40
0
 40
0
 40
0
 40
1
 40
1
 40
1
 40
1
 10
14.410490
 20
23.931874
 30
0.0
 10
13.967553
 20
23.943090
 30
0.0
 10
13.525265
 20
23.721545
 30
0.0
 10
13.288078
 20
23.310724
 30
0.0
  0
SPLINE
  5
1e7
100
AcDbEntity
  8
Logo
 62
7
100
AcDbSpline
 70
8
 71
3
 72
8
 73
4
 74
0
 40
0
 40
0
 40
0
 40
0
 40
1
 40
1
 40
1
 40
1
 10
13.288078
 20
23.310724
 30
0.0
 10
12.943078
 20
22.713166
 30
0.0
 10
13.148373
 20
21.948334
 30
0.0
 10
13.745931
 20
21.603334
 30
0.0
  0
SPLINE
  5
1e8
100
AcDbEntity
  8
Logo
 62
7
100
AcDbSpline
 70
8
 71
3
 72
8
 73
4
 74
0
 40
0
 40
0
 40
0
 40
0
 40
1
 40
1
 40
1
 40
1
 10
13.745931
 20
21.603334
 30
0.0
 10
14.189508
 20
21.347235
 30
0.0
 10
14.725475
 20
21.394185
 30
0.0
 10
15.113289
 20
21.679816
 30
0.0
  0
LWPOLYLINE
  5
1e9
100
AcDbEntity
  8
Logo
 62
7
100
AcDbPolyline
 90
4
 70
0
 10
19.500102
 20
24.789703
 30
0.0
 10
19.500102
 20
20.302639
 30
0.0
 10
15.613517
 20
22.546429
 30
0.0
 10
15.613517
 20
22.546946
 30
0.0
  0
SPLINE
  5
1ea
100
AcDbEntity
  8
Logo
 62
7
100
AcDbSpline
 70
8
 71
3
 72
8
 73
4
 74
0
 40
0
 40
0
 40
0
 40
0
 40
1
 40
1
 40
1
 40
1
 10
15.112773
 20
17.192234
 30
0.0
 10
14.724993
 20
17.477577
 30
0.0
 10
14.189341
 20
17.524201
 30
0.0
 10
13.745931
 20
17.268198
 30
0.0
  0
SPLINE
  5
1eb
100
AcDbEntity
  8
Logo
 62
7
100
AcDbSpline
 70
8
 71
3
 72
8
 73
4
 74
0
 40
0
 40
0
 40
0
 40
0
 40
1
 40
1
 40
1
 40
1
 10
13.745931
 20
17.268198
 30
0.0
 10
13.148373
 20
16.923198
 30
0.0
 10
12.943078
 20
16.158367
 30
0.0
 10
13.288078
 20
15.560809
 30
0.0
  0
SPLINE
  5
1ec
100
AcDbEntity
  8
Logo
 62
7
100
AcDbSpline
 70
8
 71
3
 72
8
 73
4
 74
0
 40
0
 40
0
 40
0
 40
0
 40
1
 40
1
 40
1
 40
1
 10
13.288078
 20
15.560809
 30
0.0
 10
13.633078
 20
14.963251
 30
0.0
 10
14.398426
 20
14.757956
 30
0.0
 10
14.995984
 20
15.102956
 30
0.0
  0
SPLINE
  5
1ed
100
AcDbEntity
  8
Logo
 62
7
100
AcDbSpline
 70
8
 71
3
 72
8
 73
4
 74
0
 40
0
 40
0
 40
0
 40
0
 40
1
 40
1
 40
1
 40
1
 10
14.995984
 20
15.102956
 30
0.0
 10
15.429850
 20
15.353449
 30
0.0
 10
15.661762
 20
15.843709
 30
0.0
 10
15.611450
 20
16.324070
 30
0.0
  0
LWPOLYLINE
  5
1ee
100
AcDbEntity
  8
Logo
 62
7
100
AcDbPolyline
 90
3
 70
0
 10
15.113289
 20
21.679816
 30
0.0
 10
18.999357
 20
19.436025
 30
0.0
 10
15.112773
 20
17.192234
 30
0.0
  0
SPLINE
  5
1ef
100
AcDbEntity
  8
Logo
 62
7
100
AcDbSpline
 70
8
 71
3
 72
8
 73
4
 74
0
 40
0
 40
0
 40
0
 40
0
 40
1
 40
1
 40
1
 40
1
 10
19.500102
 20
14.081313
 30
0.0
 10
19.058755
 20
13.888304
 30
0.0
 10
18.749760
 20
13.447900
 30
0.0
 10
18.749760
 20
12.935646
 30
0.0
  0
SPLINE
  5
1f0
100
AcDbEntity
  8
Logo
 62
7
100
AcDbSpline
 70
8
 71
3
 72
8
 73
4
 74
0
 40
0
 40
0
 40
0
 40
0
 40
1
 40
1
 40
1
 40
1
 10
18.749760
 20
12.935646
 30
0.0
 10
18.749760
 20
12.245646
 30
0.0
 10
19.309813
 20
11.685593
 30
0.0
 10
19.999813
 20
11.685594
 30
0.0
  0
SPLINE
  5
1f1
100
AcDbEntity
  8
Logo
 62
7
100
AcDbSpline
 70
8
 71
3
 72
8
 73
4
 74
0
 40
0
 40
0
 40
0
 40
0
 40
1
 40
1
 40
1
 40
1
 10
19.999813
 20
11.685594
 30
0.0
 10
20.689813
 20
11.685594
 30
0.0
 10
21.249866
 20
12.245646
 30
0.0
 10
21.249866
 20
12.935646
 30
0.0
  0
SPLINE
  5
1f2
100
AcDbEntity
  8
Logo
 62
7
100
AcDbSpline
 70
8
 71
3
 72
8
 73
4
 74
0
 40
0
 40
0
 40
0
 40
0
 40
1
 40
1
 40
1
 40
1
 10
21.249866
 20
12.935646
 30
0.0
 10
21.249866
 20
13.436770
 30
0.0
 10
20.941396
 20
13.882720
 30
0.0
 10
20.500041
 20
14.079246
 30
0.0
  0
LWPOLYLINE
  5
1f3
100
AcDbEntity
  8
Logo
 62
7
100
AcDbPolyline
 90
3
 70
0
 10
15.611450
 20
16.324070
 30
0.0
 10
19.500102
 20
18.569411
 30
0.0
 10
19.500102
 20
14.081313
 30
0.0
  0
SPLINE
  5
1f4
100
AcDbEntity
  8
Logo
 62
7
100
AcDbSpline
 70
8
 71
3
 72
8
 73
4
 74
0
 40
0
 40
0
 40
0
 40
0
 40
1
 40
1
 40
1
 40
1
 10
24.386625
 20
16.325104
 30
0.0
 10
24.333268
 20
15.846506
 30
0.0
 10
24.560653
 20
15.359014
 30
0.0
 10
25.004159
 20
15.102956
 30
0.0
  0
SPLINE
  5
1f5
100
AcDbEntity
  8
Logo
 62
7
100
AcDbSpline
 70
8
 71
3
 72
8
 73
4
 74
0
 40
0
 40
0
 40
0
 40
0
 40
1
 40
1
 40
1
 40
1
 10
25.004159
 20
15.102956
 30
0.0
 10
25.601717
 20
14.757956
 30
0.0
 10
26.366548
 20
14.963251
 30
0.0
 10
26.711548
 20
15.560809
 30
0.0
  0
SPLINE
  5
1f6
100
AcDbEntity
  8
Logo
 62
7
100
AcDbSpline
 70
8
 71
3
 72
8
 73
4
 74
0
 40
0
 40
0
 40
0
 40
0
 40
1
 40
1
 40
1
 40
1
 10
26.711548
 20
15.560809
 30
0.0
 10
27.056548
 20
16.158367
 30
0.0
 10
26.851770
 20
16.923198
 30
0.0
 10
26.254212
 20
17.268198
 30
0.0
  0
SPLINE
  5
1f7
100
AcDbEntity
  8
Logo
 62
7
100
AcDbSpline
 70
8
 71
3
 72
8
 73
4
 74
0
 40
0
 40
0
 40
0
 40
0
 40
1
 40
1
 40
1
 40
1
 10
26.254212
 20
17.268198
 30
0.0
 10
25.820439
 20
17.518637
 30
0.0
 10
25.280266
 20
17.474788
 30
0.0
 10
24.889437
 20
17.191201
 30
0.0
  0
LWPOLYLINE
  5
1f8
100
AcDbEntity
  8
Logo
 62
7
100
AcDbPolyline
 90
4
 70
0
 10
20.500041
 20
14.079246
 30
0.0
 10
20.500041
 20
18.569928
 30
0.0
 10
24.386625
 20
16.325620
 30
0.0
 10
24.386625
 20
16.325104
 30
0.0
  0
SPLINE
  5
1f9
100
AcDbEntity
  8
Logo
 62
7
100
AcDbSpline
 70
8
 71
3
 72
8
 73
4
 74
0
 40
0
 40
0
 40
0
 40
0
 40
1
 40
1
 40
1
 40
1
 10
24.886853
 20
21.679816
 30
0.0
 10
25.274668
 20
21.394181
 30
0.0
 10
25.810632
 20
21.347234
 30
0.0
 10
26.254212
 20
21.603334
 30
0.0
  0
SPLINE
  5
1fa
100
AcDbEntity
  8
Logo
 62
7
100
AcDbSpline
 70
8
 71
3
 72
8
 73
4
 74
0
 40
0
 40
0
 40
0
 40
0
 40
1
 40
1
 40
1
 40
1
 10
26.254212
 20
21.603334
 30
0.0
 10
26.838779
 20
21.940834
 30
0.0
 10
27.056548
 20
22.713166
 30
0.0
 10
26.711548
 20
23.310724
 30
0.0
  0
SPLINE
  5
1fb
100
AcDbEntity
  8
Logo
 62
7
100
AcDbSpline
 70
8
 71
3
 72
8
 73
4
 74
0
 40
0
 40
0
 40
0
 40
0
 40
1
 40
1
 40
1
 40
1
 10
26.711548
 20
23.310724
 30
0.0
 10
26.474360
 20
23.721545
 30
0.0
 10
26.038658
 20
23.946929
 30
0.0
 10
25.595337
 20
23.935492
 30
0.0
  0
SPLINE
  5
1fc
100
AcDbEntity
  8
Logo
 62
7
100
AcDbSpline
 70
8
 71
3
 72
8
 73
4
 74
0
 40
0
 40
0
 40
0
 40
0
 40
1
 40
1
 40
1
 40
1
 10
25.595337
 20
23.935492
 30
0.0
 10
25.393827
 20
23.930293
 30
0.0
 10
25.190896
 20
23.875873
 30
0.0
 10
25.004159
 20
23.768060
 30
0.0
  0
SPLINE
  5
1fd
100
AcDbEntity
  8
Logo
 62
7
100
AcDbSpline
 70
8
 71
3
 72
8
 73
4
 74
0
 40
0
 40
0
 40
0
 40
0
 40
1
 40
1
 40
1
 40
1
 10
25.004159
 20
23.768060
 30
0.0
 10
24.560820
 20
23.512099
 30
0.0
 10
24.333500
 20
23.025370
 30
0.0
 10
24.386625
 20
22.546946
 30
0.0
  0
LWPOLYLINE
  5
1fe
100
AcDbEntity
  8
Logo
 62
7
100
AcDbPolyline
 90
3
 70
0
 10
24.889437
 20
17.191201
 30
0.0
 10
21.000785
 20
19.436025
 30
0.0
 10
24.886853
 20
21.679816
 30
0.0
  0
SPLINE
  5
1ff
100
AcDbEntity
  8
Logo
 62
7
100
AcDbSpline
 70
8
 71
3
 72
8
 73
4
 74
0
 40
0
 40
0
 40
0
 40
0
 40
1
 40
1
 40
1
 40
1
 10
20.500041
 20
24.789703
 30
0.0
 10
20.941396
 20
24.982709
 30
0.0
 10
21.249866
 20
25.423627
 30
0.0
 10
21.249866
 20
25.935886
 30
0.0
  0
SPLINE
  5
200
100
AcDbEntity
  8
Logo
 62
7
100
AcDbSpline
 70
8
 71
3
 72
8
 73
4
 74
0
 40
0
 40
0
 40
0
 40
0
 40
1
 40
1
 40
1
 40
1
 10
21.249866
 20
25.935886
 30
0.0
 10
21.249866
 20
26.610886
 30
0.0
 10
20.689813
 20
27.185939
 30
0.0
 10
19.999813
 20
27.185939
 30
0.0
  0
LWPOLYLINE
  5
201
100
AcDbEntity
  8
Logo
 62
7
100
AcDbPolyline
 90
4
 70
0
 10
24.386625
 20
22.546946
 30
0.0
 10
24.386625
 20
22.546429
 30
0.0
 10
20.500041
 20
20.302122
 30
0.0
 10
20.500041
 20
24.789703
 30
0.0
  0
LWPOLYLINE
  5
202
100
AcDbEntity
  8
Logo
 62
7
100
AcDbPolyline
 90
1
 70
1
 10
19.999813
 20
27.185939
 30
0.0
  0
ENDSEC
  0
SECTION
  2
OBJECTS
  0
DICTIONARY
  5
C
330
0
100
AcDbDictionary
  3
ACAD_GROUP
350
D
  3
ACAD_MLINESTYLE
350
17
  0
DICTIONARY
  5
D
330
C
100
AcDbDictionary
  0
DICTIONARY
  5
1A
330
C
100
AcDbDictionary
  0
DICTIONARY
  5
17
330
C
100
AcDbDictionary
  3
STANDARD
350
18
  0
DICTIONARY
  5
19
330
C
100
AcDbDictionary
  0
ENDSEC
  0
EOF
