<?xml version="1.0" encoding="UTF-8" standalone="no"?>
<!-- Created with Inkscape (http://www.inkscape.org/) -->

<svg
   width="27.999842mm"
   height="30.969563mm"
   viewBox="0 0 27.999842 30.969562"
   version="1.1"
   id="svg1"
   xml:space="preserve"
   inkscape:version="1.4.3 (0d15f75042, 2025-12-25)"
   sodipodi:docname="logo-emblem-transparent.inkscape.svg"
   inkscape:export-filename="logo-emblem-transparent-600dpi.png"
   inkscape:export-xdpi="600"
   inkscape:export-ydpi="600"
   xmlns:inkscape="http://www.inkscape.org/namespaces/inkscape"
   xmlns:sodipodi="http://sodipodi.sourceforge.net/DTD/sodipodi-0.dtd"
   xmlns:xlink="http://www.w3.org/1999/xlink"
   xmlns="http://www.w3.org/2000/svg"
   xmlns:svg="http://www.w3.org/2000/svg"><sodipodi:namedview
     id="namedview1"
     pagecolor="#ffffff"
     bordercolor="#000000"
     borderopacity="0.25"
     inkscape:showpageshadow="2"
     inkscape:pageopacity="0.0"
     inkscape:pagecheckerboard="0"
     inkscape:deskcolor="#d1d1d1"
     inkscape:document-units="mm"
     inkscape:zoom="8"
     inkscape:cx="36.875"
     inkscape:cy="53.75"
     inkscape:window-width="2560"
     inkscape:window-height="1378"
     inkscape:window-x="0"
     inkscape:window-y="0"
     inkscape:window-maximized="1"
     inkscape:current-layer="layer2"
     showguides="true"
     showgrid="false"><inkscape:grid
       id="grid4"
       units="mm"
       originx="-6.0001508"
       originy="-3.9511613"
       spacingx="1"
       spacingy="0.99999996"
       empcolor="#0099e5"
       empopacity="0.30196078"
       color="#0099e5"
       opacity="0.14901961"
       empspacing="5"
       enabled="true"
       visible="false" /><sodipodi:guide
       position="13.999849,22.822842"
       orientation="1,0"
       id="guide4"
       inkscape:locked="false" /><sodipodi:guide
       position="-6.0001505,23.387007"
       orientation="0,-1"
       id="guide5"
       inkscape:locked="false" /></sodipodi:namedview><defs
     id="defs1"><linearGradient
       id="linearGradient12"
       inkscape:collect="always"><stop
         style="stop-color:#2775a0;stop-opacity:1;"
         offset="0.06116611"
         id="stop12" /><stop
         style="stop-color:#c4c3c8;stop-opacity:1;"
         offset="0.87398839"
         id="stop13" /></linearGradient><inkscape:path-effect
       effect="fillet_chamfer"
       id="path-effect12"
       is_visible="true"
       lpeversion="1"
       nodesatellites_param="F,0,1,1,0,1.9008866,0,1 @ F,0,1,1,0,1.9008866,0,1 @ F,0,1,1,0,1.9008866,0,1 @ F,0,1,1,0,1.9008866,0,1 @ F,0,1,1,0,1.9008866,0,1 @ F,0,1,1,0,1.9008866,0,1"
       radius="0"
       unit="px"
       method="auto"
       mode="F"
       chamfer_steps="1"
       flexible="false"
       use_knot_distance="true"
       apply_no_radius="true"
       apply_with_radius="true"
       only_selected="false"
       hide_knots="false" /><linearGradient
       inkscape:collect="always"
       xlink:href="#linearGradient12"
       id="linearGradient13"
       x1="30.312363"
       y1="195.2178"
       x2="48.022053"
       y2="216.32339"
       gradientUnits="userSpaceOnUse" /></defs><g
     inkscape:label="Logo"
     inkscape:groupmode="layer"
     id="layer1"
     inkscape:export-filename="logo-emblem-transparent.png"
     inkscape:export-xdpi="1200"
     inkscape:export-ydpi="1200"
     transform="translate(-14.110571,-133.01531)"><path
       id="path10"
       transform="matrix(0.68014538,0,0,0.6656446,1.4710729,11.529971)"
       inkscape:transform-center-y="-1.0110951"
       d="m 40.840627,190.76511 10.428833,5.61831 a 3.1832467,3.1832467 59.156319 0 1 1.673489,2.80245 v 13.16924 a 3.1832466,3.1832466 120.84368 0 1 -1.673489,2.80245 l -10.428834,5.61831 a 3.5284651,3.5284651 0 0 1 -3.346978,0 l -10.428834,-5.61831 a 3.1832466,3.1832466 59.156318 0 1 -1.673489,-2.80245 v -13.16924 a 3.1832465,3.1832465 120.84368 0 1 1.673489,-2.80245 l 10.428835,-5.61831 a 3.5284651,3.5284651 1.7366369e-6 0 1 3.346978,0 z"
       style="display:inline;opacity:1;fill:#30323e;fill-opacity:1;stroke:none;stroke-width:0.4;stroke-linecap:round;stroke-dasharray:none;paint-order:markers stroke fill"
       inkscape:path-effect="#path-effect12"
       inkscape:original-d="m 39.167138,189.86355 13.775811,7.42143 V 214.256 L 39.167137,221.67743 25.391325,214.256 v -16.97102 z"
       sodipodi:nodetypes="ccccccc"
       inkscape:label="ring-inner-bg"
       inkscape:export-filename="logo-emblem-transparent-600dpi.png"
       inkscape:export-xdpi="600"
       inkscape:export-ydpi="600" /><path
       id="path5"
       style="display:inline;opacity:1;fill:url(#linearGradient13);stroke:none;stroke-width:0.4;stroke-linecap:round;stroke-dasharray:none;paint-order:markers stroke fill"
       inkscape:label="ring-colored"
       inkscape:transform-center-y="-1.5107804"
       d="m 38.991524,190.20811 a 2.4881831,2.4881831 0 0 0 -1.004266,0.29095 l -9.596716,5.17021 a 5.7053501,5.7053501 0 0 0 -2.999069,5.02265 v 10.157 a 5.7053503,5.7053503 0 0 0 2.999069,5.02317 l 9.596716,5.16968 a 2.4881831,2.4881831 0 0 0 2.359898,0 l 9.596208,-5.16968 a 5.7053503,5.7053503 0 0 0 2.999578,-5.02317 v -10.157 a 5.7053505,5.7053505 0 0 0 -2.999578,-5.02265 l -9.596208,-5.17021 a 2.4881831,2.4881831 0 0 0 -1.355632,-0.29095 z m 0.0092,5.24346 a 2.3614392,2.3614392 0 0 1 1.286478,0.27641 l 6.979522,3.7601 a 2.1304004,2.1304004 0 0 1 1.120202,1.87564 v 8.8134 a 2.1304004,2.1304004 0 0 1 -1.120202,1.87564 l -6.979522,3.7601 a 2.3614392,2.3614392 0 0 1 -2.239895,0 l -6.979522,-3.7601 a 2.1304004,2.1304004 0 0 1 -1.120202,-1.87564 v -8.8134 a 2.1304003,2.1304003 0 0 1 1.120202,-1.87564 l 6.979522,-3.7601 a 2.3614392,2.3614392 0 0 1 0.953417,-0.27641 z"
       transform="matrix(1.016274,0,0,0.9946069,-11.694123,-56.160763)" /><path
       id="path43"
       style="baseline-shift:baseline;display:inline;overflow:visible;opacity:1;vector-effect:none;fill:#f9f9f9;fill-rule:evenodd;enable-background:accumulate;stop-color:#000000;stop-opacity:1"
       inkscape:label="star"
       d="m 32.238102,11.685592 c -0.69,0 -1.250053,0.560053 -1.250053,1.250053 0,0.512253 0.308995,0.953174 0.750342,1.146183 v 4.487064 l -3.886585,-2.24379 v -5.17e-4 c 0.05313,-0.478427 -0.174192,-0.965151 -0.617533,-1.221114 -0.182677,-0.105469 -0.384159,-0.158716 -0.585494,-0.163814 -0.442937,-0.01122 -0.885225,0.210329 -1.122412,0.62115 -0.345,0.597558 -0.139705,1.36239 0.457853,1.70739 0.443577,0.256099 0.979544,0.209149 1.367358,-0.07648 l 3.886068,2.243791 -3.886584,2.243791 c -0.38778,-0.285343 -0.923432,-0.331967 -1.366842,-0.07596 -0.597558,0.345 -0.802853,1.109831 -0.457853,1.707389 0.345,0.597558 1.110348,0.802853 1.707906,0.457853 0.433866,-0.250493 0.665778,-0.740753 0.615466,-1.221114 l 3.888652,-2.245341 v 4.488098 c -0.441347,0.193009 -0.750342,0.633413 -0.750342,1.145667 0,0.69 0.560053,1.250053 1.250053,1.250052 0.69,0 1.250053,-0.560052 1.250053,-1.250052 0,-0.501124 -0.30847,-0.947074 -0.749825,-1.1436 v -4.490682 l 3.886584,2.244308 v 5.16e-4 c -0.05336,0.478598 0.174028,0.96609 0.617534,1.222148 0.597558,0.345 1.362389,0.139705 1.707389,-0.457853 0.345,-0.597558 0.140222,-1.362389 -0.457336,-1.707389 -0.433773,-0.250439 -0.973946,-0.20659 -1.364775,0.077 l -3.888652,-2.244824 3.886068,-2.243791 c 0.387815,0.285635 0.923779,0.332582 1.367359,0.07648 0.584567,-0.3375 0.802336,-1.109832 0.457336,-1.70739 -0.237188,-0.410821 -0.67289,-0.636205 -1.116211,-0.624768 -0.20151,0.0052 -0.404441,0.05962 -0.591178,0.167432 -0.443339,0.255961 -0.670659,0.74269 -0.617534,1.221114 v 5.17e-4 l -3.886584,2.244307 v -4.487581 c 0.441355,-0.193006 0.749825,-0.633924 0.749825,-1.146183 0,-0.675 -0.560053,-1.250053 -1.250053,-1.250053 z"
       transform="translate(-4.1278689,129.06415)" /></g><g
     inkscape:groupmode="layer"
     id="layer2"
     inkscape:label="MetaData"
     transform="translate(-6.0001506,-3.9511614)" /></svg>
