<?xml version="1.0" encoding="UTF-8" standalone="no"?>
<!-- Created with Inkscape (http://www.inkscape.org/) -->

<svg
   width="27.999842mm"
   height="30.969563mm"
   viewBox="0 0 27.999842 30.969562"
   version="1.1"
   id="svg1"
   xml:space="preserve"
   inkscape:version="1.4.2 (ebf0e940d0, 2025-05-08)"
   sodipodi:docname="logo-emblem-transparent.inkscape.svg"
   inkscape:export-filename="logo-emblem-transparent.png"
   inkscape:export-xdpi="300"
   inkscape:export-ydpi="300"
   xmlns:inkscape="http://www.inkscape.org/namespaces/inkscape"
   xmlns:sodipodi="http://sodipodi.sourceforge.net/DTD/sodipodi-0.dtd"
   xmlns:xlink="http://www.w3.org/1999/xlink"
   xmlns="http://www.w3.org/2000/svg"
   xmlns:svg="http://www.w3.org/2000/svg"><sodipodi:namedview
     id="namedview1"
     pagecolor="#ffffff"
     bordercolor="#000000"
     borderopacity="0.25"
     inkscape:showpageshadow="2"
     inkscape:pageopacity="0.0"
     inkscape:pagecheckerboard="0"
     inkscape:deskcolor="#d1d1d1"
     inkscape:document-units="mm"
     inkscape:zoom="4"
     inkscape:cx="200.5"
     inkscape:cy="93.125"
     inkscape:window-width="2560"
     inkscape:window-height="1378"
     inkscape:window-x="0"
     inkscape:window-y="0"
     inkscape:window-maximized="1"
     inkscape:current-layer="layer1"
     showguides="true"
     showgrid="false"><inkscape:grid
       id="grid4"
       units="mm"
       originx="-6.0001508"
       originy="-3.9511613"
       spacingx="1"
       spacingy="0.99999996"
       empcolor="#0099e5"
       empopacity="0.30196078"
       color="#0099e5"
       opacity="0.14901961"
       empspacing="5"
       enabled="true"
       visible="false" /><sodipodi:guide
       position="13.999849,22.822842"
       orientation="1,0"
       id="guide4"
       inkscape:locked="false" /><sodipodi:guide
       position="-6.0001505,23.387007"
       orientation="0,-1"
       id="guide5"
       inkscape:locked="false" /></sodipodi:namedview><defs
     id="defs1"><linearGradient
       id="linearGradient12"
       inkscape:collect="always"><stop
         style="stop-color:#2775a0;stop-opacity:1;"
         offset="0.06116611"
         id="stop12" /><stop
         style="stop-color:#c4c3c8;stop-opacity:1;"
         offset="0.87398839"
         id="stop13" /></linearGradient><inkscape:path-effect
       effect="fillet_chamfer"
       id="path-effect12"
       is_visible="true"
       lpeversion="1"
       nodesatellites_param="F,0,1,1,0,1.9008866,0,1 @ F,0,1,1,0,1.9008866,0,1 @ F,0,1,1,0,1.9008866,0,1 @ F,0,1,1,0,1.9008866,0,1 @ F,0,1,1,0,1.9008866,0,1 @ F,0,1,1,0,1.9008866,0,1"
       radius="0"
       unit="px"
       method="auto"
       mode="F"
       chamfer_steps="1"
       flexible="false"
       use_knot_distance="true"
       apply_no_radius="true"
       apply_with_radius="true"
       only_selected="false"
       hide_knots="false" /><inkscape:path-effect
       effect="fillet_chamfer"
       id="path-effect10"
       is_visible="true"
       lpeversion="1"
       nodesatellites_param="F,0,1,1,0,1.9008866,0,1 @ F,0,1,1,0,1.9008866,0,1 @ F,0,1,1,0,1.9008866,0,1 @ F,0,1,1,0,1.9008866,0,1 @ F,0,1,1,0,1.9008866,0,1 @ F,0,1,1,0,1.9008866,0,1"
       radius="0"
       unit="px"
       method="auto"
       mode="F"
       chamfer_steps="1"
       flexible="false"
       use_knot_distance="true"
       apply_no_radius="true"
       apply_with_radius="true"
       only_selected="false"
       hide_knots="false" /><inkscape:path-effect
       effect="fillet_chamfer"
       id="path-effect8"
       is_visible="true"
       lpeversion="1"
       nodesatellites_param="F,0,0,1,0,1.3404565,0,1 @ F,0,0,1,0,3.4069695,0,1 @ F,0,0,1,0,3.4069695,0,1 @ F,0,1,1,0,1.3404565,0,1 @ F,0,0,1,0,3.4069695,0,1 @ F,0,0,1,0,3.4069695,0,1"
       radius="0"
       unit="px"
       method="auto"
       mode="F"
       chamfer_steps="1"
       flexible="false"
       use_knot_distance="true"
       apply_no_radius="true"
       apply_with_radius="true"
       only_selected="false"
       hide_knots="false" /><inkscape:path-effect
       effect="fillet_chamfer"
       id="path-effect7"
       is_visible="true"
       lpeversion="1"
       nodesatellites_param="F,0,0,1,0,0,0,1 @ F,0,0,1,0,0,0,1 @ F,0,0,1,0,0,0,1 @ F,0,0,1,0,0,0,1 @ F,0,0,1,0,0,0,1 @ F,0,0,1,0,0,0,1"
       radius="0"
       unit="px"
       method="auto"
       mode="F"
       chamfer_steps="1"
       flexible="false"
       use_knot_distance="true"
       apply_no_radius="true"
       apply_with_radius="true"
       only_selected="false"
       hide_knots="false" /><linearGradient
       inkscape:collect="always"
       xlink:href="#linearGradient12"
       id="linearGradient13"
       x1="30.312363"
       y1="195.2178"
       x2="48.022053"
       y2="216.32339"
       gradientUnits="userSpaceOnUse" /></defs><g
     inkscape:label="Logo"
     inkscape:groupmode="layer"
     id="layer1"
     inkscape:export-filename="logo-emblem-transparent.png"
     inkscape:export-xdpi="1200"
     inkscape:export-ydpi="1200"
     transform="translate(-14.110571,-133.01531)"><path
       id="path10"
       transform="matrix(0.68014538,0,0,0.6656446,1.4710729,11.529971)"
       inkscape:transform-center-y="-1.0110951"
       d="m 40.840627,190.76511 10.428833,5.61831 a 3.1832467,3.1832467 59.156319 0 1 1.673489,2.80245 v 13.16924 a 3.1832466,3.1832466 120.84368 0 1 -1.673489,2.80245 l -10.428834,5.61831 a 3.5284651,3.5284651 0 0 1 -3.346978,0 l -10.428834,-5.61831 a 3.1832466,3.1832466 59.156318 0 1 -1.673489,-2.80245 v -13.16924 a 3.1832465,3.1832465 120.84368 0 1 1.673489,-2.80245 l 10.428835,-5.61831 a 3.5284651,3.5284651 1.7366369e-6 0 1 3.346978,0 z"
       style="display:inline;opacity:1;fill:#30323e;fill-opacity:1;stroke:none;stroke-width:0.4;stroke-linecap:round;stroke-dasharray:none;paint-order:markers stroke fill"
       inkscape:path-effect="#path-effect12"
       inkscape:original-d="m 39.167138,189.86355 13.775811,7.42143 V 214.256 L 39.167137,221.67743 25.391325,214.256 v -16.97102 z"
       sodipodi:nodetypes="ccccccc"
       inkscape:label="ring-inner-bg"
       inkscape:export-filename="logo-emblem-transparent-600dpi.png"
       inkscape:export-xdpi="600"
       inkscape:export-ydpi="600" /><path
       id="path5"
       style="display:inline;opacity:1;fill:url(#linearGradient13);stroke:none;stroke-width:0.4;stroke-linecap:round;stroke-dasharray:none;paint-order:markers stroke fill"
       inkscape:label="ring-colored"
       inkscape:transform-center-y="-1.5107804"
       d="m 38.991524,190.20811 a 2.4881831,2.4881831 0 0 0 -1.004266,0.29095 l -9.596716,5.17021 a 5.7053501,5.7053501 0 0 0 -2.999069,5.02265 v 10.157 a 5.7053503,5.7053503 0 0 0 2.999069,5.02317 l 9.596716,5.16968 a 2.4881831,2.4881831 0 0 0 2.359898,0 l 9.596208,-5.16968 a 5.7053503,5.7053503 0 0 0 2.999578,-5.02317 v -10.157 a 5.7053505,5.7053505 0 0 0 -2.999578,-5.02265 l -9.596208,-5.17021 a 2.4881831,2.4881831 0 0 0 -1.355632,-0.29095 z m 0.0092,5.24346 a 2.3614392,2.3614392 0 0 1 1.286478,0.27641 l 6.979522,3.7601 a 2.1304004,2.1304004 0 0 1 1.120202,1.87564 v 8.8134 a 2.1304004,2.1304004 0 0 1 -1.120202,1.87564 l -6.979522,3.7601 a 2.3614392,2.3614392 0 0 1 -2.239895,0 l -6.979522,-3.7601 a 2.1304004,2.1304004 0 0 1 -1.120202,-1.87564 v -8.8134 a 2.1304003,2.1304003 0 0 1 1.120202,-1.87564 l 6.979522,-3.7601 a 2.3614392,2.3614392 0 0 1 0.953417,-0.27641 z"
       transform="matrix(1.016274,0,0,0.9946069,-11.694123,-56.160763)" /><g
       id="g5"
       inkscape:label="star"
       transform="translate(0.12254248,4.15875e-4)"
       style="display:inline;stroke:#f9f9f9"><path
         id="path11"
         style="baseline-shift:baseline;display:inline;overflow:visible;opacity:1;vector-effect:none;fill:#f9f9f9;fill-rule:evenodd;stroke:none;enable-background:accumulate;stop-color:#000000;stop-opacity:1"
         d="m 21.957568,144.00236 c -0.354463,-0.009 -0.70781,0.16836 -0.89762,0.49712 -0.276088,0.4782 -0.111812,1.09076 0.366386,1.36685 0.418709,0.24174 0.939914,0.14599 1.248503,-0.20258 l 10.42572,6.01824 c -0.14809,0.44174 0.02957,0.94149 0.448551,1.18339 0.478198,0.27609 1.090755,0.11233 1.366842,-0.36587 0.276088,-0.4782 0.111812,-1.09023 -0.366386,-1.36632 -0.409673,-0.23653 -0.938092,-0.14507 -1.248503,0.20257 l -10.42572,-6.01875 c 0.147884,-0.44166 -0.03019,-0.94156 -0.449068,-1.18339 -0.146188,-0.0844 -0.307586,-0.12718 -0.468705,-0.13126 z"
         inkscape:label="star3" /><path
         id="path16"
         style="baseline-shift:baseline;display:inline;overflow:visible;opacity:1;vector-effect:none;fill:#f9f9f9;fill-rule:evenodd;stroke:none;enable-background:accumulate;stop-color:#000000;stop-opacity:1"
         d="m 34.022464,143.99977 c -0.161259,0.004 -0.323919,0.0476 -0.473356,0.13385 -0.418572,0.24166 -0.595859,0.74093 -0.448551,1.18235 l -10.425204,6.01979 c -0.308537,-0.34894 -0.830124,-0.44442 -1.249019,-0.20257 -0.478198,0.27609 -0.642474,0.88812 -0.366386,1.36632 0.276087,0.4782 0.888127,0.64196 1.366325,0.36587 0.410009,-0.23672 0.594554,-0.74048 0.448035,-1.18339 l 10.42727,-6.01772 c 0.308683,0.34787 0.829615,0.4436 1.247986,0.20206 0.467802,-0.27009 0.642474,-0.88865 0.366386,-1.36685 -0.18981,-0.32876 -0.538716,-0.50886 -0.893486,-0.49971 z"
         inkscape:label="star2" /><path
         id="path6"
         style="baseline-shift:baseline;display:inline;overflow:visible;opacity:1;vector-effect:none;fill:#f9f9f9;fill-rule:evenodd;stroke:none;enable-background:accumulate;stop-color:#000000;stop-opacity:1"
         d="m 27.987691,140.49973 c -0.552175,0 -0.999939,0.44827 -0.999939,1.00045 0,0.48343 0.34337,0.88727 0.799434,0.98031 v 12.03854 c -0.456064,0.093 -0.799434,0.49636 -0.799434,0.97978 0,0.55218 0.447764,1.00046 0.999939,1.00046 0.552175,0 1.000455,-0.44828 1.000455,-1.00046 0,-0.4733 -0.343833,-0.88507 -0.800468,-0.97978 v -12.03854 c 0.456635,-0.0926 0.800468,-0.49648 0.800468,-0.98031 0,-0.54017 -0.44828,-1.00045 -1.000455,-1.00045 z"
         inkscape:label="star1" /></g></g></svg>
